<?xml version="1.0" encoding="utf-8"?>
<!-- Generator: Adobe Illustrator 21.0.2, SVG Export Plug-In . SVG Version: 6.00 Build 0)  -->
<svg version="1.1" id="Outline_Icons" xmlns="http://www.w3.org/2000/svg" xmlns:xlink="http://www.w3.org/1999/xlink" x="0px"
	 y="0px" viewBox="0 0 24 24" style="enable-background:new 0 0 24 24;" xml:space="preserve">
<style type="text/css">
	.st0{fill:none;stroke:#000000;stroke-linecap:round;stroke-linejoin:round;}
</style>
<title>矢量智能对象1</title>
<path class="st0" d="M16.4,19.2l2.3,2.3l2.8-2.8l-2.3-2.3c0.5-0.9,0.8-1.9,1-2.9h3.3v-3h-3.3c-0.2-1-0.5-2-1-2.9l2.3-2.3l-2.8-2.8
	l-2.3,2.3c-0.9-0.5-1.9-0.8-2.9-1V0.5h-3v3.3c-1,0.2-2,0.5-2.9,1L5.3,2.4L2.5,5.3l2.3,2.3c-0.5,0.9-0.8,1.9-1,2.9H0.5v3h3.3
	c0.2,1,0.5,2,1,2.9l-2.3,2.3l2.8,2.8l2.3-2.3"/>
<line class="st0" x1="10.5" y1="20.5" x2="13.5" y2="20.5"/>
<line class="st0" x1="10.5" y1="22.5" x2="13.5" y2="22.5"/>
<line class="st0" x1="12" y1="22.5" x2="12" y2="23.5"/>
<path class="st0" d="M17.9,12c0.2-3.2-2.3-6-5.5-6.2c-3.2-0.2-6,2.3-6.2,5.5c-0.2,2.8,1.7,5.3,4.4,6.1v1.1h3v-1.1
	C16,16.7,17.8,14.5,17.9,12z"/>
</svg>
