<svg id="Outline_Icons" data-name="Outline Icons" xmlns="http://www.w3.org/2000/svg" viewBox="0 0 23.68 23.68"><defs><style>.cls-1{fill:none;stroke:#49acff;stroke-linejoin:round;}</style></defs><title>2-制造和供应链icon-hover</title><circle class="cls-1" cx="11.84" cy="11.84" r="11.34"/><path class="cls-1" d="M11.22,5.54a11.36,11.36,0,0,1-.41-2.18" transform="translate(-2.33 -2.33)"/><path class="cls-1" d="M19.8,13.62A11.53,11.53,0,0,1,12.9,9.1" transform="translate(-2.33 -2.33)"/><path class="cls-1" d="M25.46,13.12a10.08,10.08,0,0,1-1.72.5" transform="translate(-2.33 -2.33)"/><path class="cls-1" d="M17.58,20.27a23.75,23.75,0,0,1-6.05,4.93" transform="translate(-2.33 -2.33)"/><path class="cls-1" d="M20.9,15.4A24.85,24.85,0,0,1,19.43,18" transform="translate(-2.33 -2.33)"/><path class="cls-1" d="M23.33,7.49a23.31,23.31,0,0,1-.92,4.27" transform="translate(-2.33 -2.33)"/><path class="cls-1" d="M6.08,18.71c-.79-.19-1.81-.39-2.56-.63" transform="translate(-2.33 -2.33)"/><path class="cls-1" d="M12.69,19.54A36.79,36.79,0,0,1,8,19.1" transform="translate(-2.33 -2.33)"/><path class="cls-1" d="M17.13,19.54H15.67" transform="translate(-2.33 -2.33)"/><path class="cls-1" d="M24.74,18.28a38.76,38.76,0,0,1-4.73.86" transform="translate(-2.33 -2.33)"/><path class="cls-1" d="M9.94,7.09A11.27,11.27,0,0,1,6.64,5.7" transform="translate(-2.33 -2.33)"/><path class="cls-1" d="M20.17,4.54a11.75,11.75,0,0,1-6.3,2.85" transform="translate(-2.33 -2.33)"/><path class="cls-1" d="M15,20.74a20.94,20.94,0,0,1,2.24,4.32" transform="translate(-2.33 -2.33)"/><path class="cls-1" d="M9.78,15.52a22.4,22.4,0,0,1,3.46,2.87" transform="translate(-2.33 -2.33)"/><path class="cls-1" d="M2.89,13a17.08,17.08,0,0,1,3.26.81" transform="translate(-2.33 -2.33)"/><path class="cls-1" d="M6.61,20a14.42,14.42,0,0,1-1,1.62" transform="translate(-2.33 -2.33)"/><path class="cls-1" d="M7.73,16.58a13.43,13.43,0,0,1-.36,1.62" transform="translate(-2.33 -2.33)"/><path class="cls-1" d="M5.3,7a12.09,12.09,0,0,1,2.43,5.56" transform="translate(-2.33 -2.33)"/><circle class="cls-1" cx="9.56" cy="5.07" r="1.97"/><circle class="cls-1" cx="5.64" cy="12.27" r="1.97"/><circle class="cls-1" cx="4.65" cy="16.77" r="0.99"/><circle class="cls-1" cx="11.84" cy="17.2" r="1.48"/><circle class="cls-1" cx="16.2" cy="16.8" r="1.48"/><circle class="cls-1" cx="19.44" cy="11.29" r="1.97"/></svg>