<svg id="Outline_Icons" data-name="Outline Icons" xmlns="http://www.w3.org/2000/svg" viewBox="0 0 23.68 21.97"><defs><style>.cls-1,.cls-2{fill:none;stroke:#fff;stroke-linejoin:round;}.cls-2{stroke-linecap:round;}</style></defs><title>5-售后服务icon</title><path class="cls-1" d="M25.51,12.94c0,5.11-5.08,9.26-11.35,9.26a13.62,13.62,0,0,1-3.95-.58l-6.53,3,2.56-5.09a8.5,8.5,0,0,1-3.41-6.61c0-5.11,5.08-9.26,11.35-9.26S25.51,7.83,25.51,12.94Z" transform="translate(-2.33 -3.19)"/><path class="cls-2" d="M8.73,11.08a2,2,0,1,1,3.95,0" transform="translate(-2.33 -3.19)"/><path class="cls-2" d="M19.59,11.08a2,2,0,1,0-3.95,0" transform="translate(-2.33 -3.19)"/><path class="cls-2" d="M7.74,13.55A4.45,4.45,0,0,0,12.18,18h3.95a4.45,4.45,0,0,0,4.44-4.44" transform="translate(-2.33 -3.19)"/></svg>