<svg id="Outline_Icons" data-name="Outline Icons" xmlns="http://www.w3.org/2000/svg" viewBox="0 0 23.68 23.68"><defs><style>.cls-1{fill:none;stroke:#49acff;stroke-linecap:round;stroke-linejoin:round;}</style></defs><title>6-环境健康icon-hover</title><path class="cls-1" d="M18.53,21.32l2.27,2.27,2.79-2.79-2.27-2.27a11.64,11.64,0,0,0,1-2.88h3.2v-3h-3.2a11.63,11.63,0,0,0-1-2.88l2.27-2.27L20.8,4.76,18.53,7a11.6,11.6,0,0,0-2.88-1V2.83h-3V6A11.61,11.61,0,0,0,9.82,7L7.55,4.76,4.76,7.55,7,9.82a11.65,11.65,0,0,0-1,2.88H2.83v3H6a11.64,11.64,0,0,0,1,2.88L4.76,20.8l2.79,2.79,2.27-2.27" transform="translate(-2.33 -2.33)"/><line class="cls-1" x1="10.36" y1="20.22" x2="13.32" y2="20.22"/><line class="cls-1" x1="10.36" y1="22.19" x2="13.32" y2="22.19"/><line class="cls-1" x1="11.84" y1="22.19" x2="11.84" y2="23.18"/><path class="cls-1" d="M20,14.17a5.8,5.8,0,1,0-7.27,5.25v1.11h3V19.42A5.64,5.64,0,0,0,20,14.17Z" transform="translate(-2.33 -2.33)"/></svg>