<svg id="Outline_Icons" data-name="Outline Icons" xmlns="http://www.w3.org/2000/svg" viewBox="0 0 21.42 23.68"><defs><style>.cls-1{fill:none;stroke:#49acff;stroke-linejoin:round;}</style></defs><title>1-研发管理icon-hover</title><polyline class="cls-1" points="11.72 14.88 11.72 17.02 9.75 17.02 9.75 14.88"/><circle class="cls-1" cx="10.73" cy="12.09" r="2.96"/><line class="cls-1" x1="10.71" y1="6.66" x2="10.71" y2="7.65"/><line class="cls-1" x1="14.55" y1="8.24" x2="13.86" y2="8.93"/><line class="cls-1" x1="16.13" y1="12.09" x2="15.15" y2="12.09"/><line class="cls-1" x1="14.55" y1="15.9" x2="13.86" y2="15.21"/><line class="cls-1" x1="6.88" y1="15.9" x2="7.58" y2="15.21"/><line class="cls-1" x1="5.29" y1="12.09" x2="6.27" y2="12.09"/><line class="cls-1" x1="6.88" y1="8.24" x2="7.58" y2="8.93"/><path class="cls-1" d="M22.26,10.63c0-5-4.68-7.8-8.94-7.8A9.28,9.28,0,0,0,4,12.26c0,3,1,5.82,3.94,7.57v5.68h9.86V22.08c2,0,3-.13,3.67-.82.89-.89.8-4.62.8-4.62s.84,0,1.48,0a.74.74,0,0,0,.57-.3,1.16,1.16,0,0,0,.1-.62C24.49,14.14,22.26,11.42,22.26,10.63Z" transform="translate(-3.46 -2.33)"/></svg>