<svg id="New_icons" data-name="New icons" xmlns="http://www.w3.org/2000/svg" viewBox="0 0 24 24"><defs><style>.cls-1,.cls-2{fill:none;stroke:#000;stroke-linejoin:round;}.cls-2{stroke-linecap:round;}</style></defs><title>库存和质量管理icon</title><circle class="cls-1" cx="17.5" cy="17.5" r="4"/><line class="cls-2" x1="20.33" y1="20.33" x2="23.5" y2="23.5"/><polyline class="cls-2" points="18.5 10.5 0.5 10.5 0.5 5.5 18.5 5.5 18.5 11.5"/><circle class="cls-2" cx="9.5" cy="8" r="0.5"/><circle class="cls-2" cx="12.5" cy="8" r="0.5"/><circle class="cls-2" cx="15.5" cy="8" r="0.5"/><circle class="cls-2" cx="3.5" cy="8" r="1"/><polyline class="cls-2" points="0.5 5.5 0.5 0.5 18.5 0.5 18.5 5.5"/><circle class="cls-2" cx="9.5" cy="3" r="0.5"/><circle class="cls-2" cx="12.5" cy="3" r="0.5"/><circle class="cls-2" cx="15.5" cy="3" r="0.5"/><circle class="cls-2" cx="3.5" cy="3" r="1"/><polyline class="cls-2" points="0.5 10.5 0.5 15.5 11.5 15.5"/><circle class="cls-2" cx="9.5" cy="13" r="0.5"/><circle class="cls-2" cx="12.5" cy="13" r="0.5"/><circle class="cls-2" cx="3.5" cy="13" r="1"/><line class="cls-2" x1="5.5" y1="19.5" x2="11" y2="19.5"/><line class="cls-2" x1="9.5" y1="15.5" x2="9.5" y2="19.5"/><path d="M746.5,3956a.5.5,0,1,0,.5.5.5.5,0,0,0-.5-.5Z" transform="translate(-745 -3937)"/><path d="M748.5,3956a.5.5,0,1,0,.5.5.5.5,0,0,0-.5-.5Z" transform="translate(-745 -3937)"/></svg>