<?xml version="1.0" encoding="utf-8"?>
<!-- Generator: Adobe Illustrator 21.0.2, SVG Export Plug-In . SVG Version: 6.00 Build 0)  -->
<svg version="1.1" id="Outline_Icons" xmlns="http://www.w3.org/2000/svg" xmlns:xlink="http://www.w3.org/1999/xlink" x="0px"
	 y="0px" viewBox="0 0 24 24" style="enable-background:new 0 0 24 24;" xml:space="preserve">
<style type="text/css">
	.st0{fill:none;stroke:#000000;stroke-linejoin:round;}
</style>
<title>矢量智能对象2</title>
<circle class="st0" cx="12" cy="12" r="11.5"/>
<path class="st0" d="M9,3.2C8.8,2.5,8.6,1.8,8.6,1"/>
<path class="st0" d="M17.7,11.4c-2.8-0.6-5.3-2.2-7-4.6"/>
<path class="st0" d="M23.5,10.9c-0.6,0.2-1.1,0.4-1.7,0.5"/>
<path class="st0" d="M15.5,18.2c-1.8,2-3.8,3.7-6.1,5"/>
<path class="st0" d="M18.8,13.2c-0.4,0.9-0.9,1.8-1.5,2.6"/>
<path class="st0" d="M21.3,5.2c-0.2,1.5-0.5,2.9-0.9,4.3"/>
<path class="st0" d="M3.8,16.6C3,16.4,1.9,16.2,1.2,16"/>
<path class="st0" d="M10.5,17.4c-1.6,0-3.2-0.2-4.8-0.4"/>
<path class="st0" d="M15,17.4c-0.5,0-1,0-1.5,0"/>
<path class="st0" d="M22.7,16.2c-1.6,0.4-3.2,0.7-4.8,0.9"/>
<path class="st0" d="M7.7,4.8C6.5,4.5,5.4,4.1,4.4,3.4"/>
<path class="st0" d="M18.1,2.2c-1.8,1.6-4,2.6-6.4,2.9"/>
<path class="st0" d="M12.9,18.7c0.9,1.4,1.7,2.8,2.3,4.4"/>
<path class="st0" d="M7.5,13.4c1.3,0.8,2.4,1.8,3.5,2.9"/>
<path class="st0" d="M0.6,10.8c1.1,0.2,2.2,0.4,3.3,0.8"/>
<path class="st0" d="M4.3,17.9c-0.3,0.6-0.6,1.1-1,1.6"/>
<path class="st0" d="M5.5,14.4c-0.1,0.6-0.2,1.1-0.4,1.6"/>
<path class="st0" d="M3,4.8c1.3,1.6,2.1,3.6,2.5,5.6"/>
<circle class="st0" cx="9.7" cy="5.1" r="2"/>
<circle class="st0" cx="5.7" cy="12.4" r="2"/>
<circle class="st0" cx="4.7" cy="17" r="1"/>
<circle class="st0" cx="12" cy="17.4" r="1.5"/>
<circle class="st0" cx="16.4" cy="17" r="1.5"/>
<circle class="st0" cx="19.7" cy="11.4" r="2"/>
</svg>
