<svg id="Outline_Icons" data-name="Outline Icons" xmlns="http://www.w3.org/2000/svg" viewBox="0 0 23.68 23.68"><defs><style>.cls-1,.cls-2{fill:none;stroke:#49acff;stroke-linejoin:round;}.cls-2{stroke-linecap:round;}.cls-3{fill:#49acff;}</style></defs><title>3-库存和质量管理icon-hover</title><circle class="cls-1" cx="17.26" cy="17.26" r="3.94"/><line class="cls-2" x1="20.05" y1="20.05" x2="23.18" y2="23.18"/><polyline class="cls-2" points="18.25 10.36 0.5 10.36 0.5 5.43 18.25 5.43 18.25 11.35"/><circle class="cls-2" cx="9.37" cy="7.89" r="0.49"/><circle class="cls-2" cx="12.33" cy="7.89" r="0.49"/><circle class="cls-2" cx="15.29" cy="7.89" r="0.49"/><circle class="cls-2" cx="3.46" cy="7.89" r="0.99"/><polyline class="cls-2" points="0.5 5.43 0.5 0.5 18.25 0.5 18.25 5.43"/><circle class="cls-2" cx="9.37" cy="2.96" r="0.49"/><circle class="cls-2" cx="12.33" cy="2.96" r="0.49"/><circle class="cls-2" cx="15.29" cy="2.96" r="0.49"/><circle class="cls-2" cx="3.46" cy="2.96" r="0.99"/><polyline class="cls-2" points="0.5 10.36 0.5 15.29 11.35 15.29"/><circle class="cls-2" cx="9.37" cy="12.82" r="0.49"/><circle class="cls-2" cx="12.33" cy="12.82" r="0.49"/><circle class="cls-2" cx="3.46" cy="12.82" r="0.99"/><line class="cls-2" x1="5.43" y1="19.23" x2="10.85" y2="19.23"/><line class="cls-2" x1="9.37" y1="15.29" x2="9.37" y2="19.23"/><path class="cls-3" d="M3.82,21.07a.49.49,0,1,0,.49.49A.49.49,0,0,0,3.82,21.07Z" transform="translate(-2.33 -2.33)"/><path class="cls-3" d="M5.79,21.07a.49.49,0,1,0,.49.49A.49.49,0,0,0,5.79,21.07Z" transform="translate(-2.33 -2.33)"/></svg>