<svg xmlns="http://www.w3.org/2000/svg" width="175.625" height="32.75" viewBox="0 0 175.625 32.75">
  <metadata><?xpacket begin="﻿" id="W5M0MpCehiHzreSzNTczkc9d"?>
<x:xmpmeta xmlns:x="adobe:ns:meta/" x:xmptk="Adobe XMP Core 5.6-c138 79.159824, 2016/09/14-01:09:01        ">
   <rdf:RDF xmlns:rdf="http://www.w3.org/1999/02/22-rdf-syntax-ns#">
      <rdf:Description rdf:about=""/>
   </rdf:RDF>
</x:xmpmeta>
                                                                                                    
                                                                                                    
                                                                                                    
                                                                                                    
                                                                                                    
                                                                                                    
                                                                                                    
                                                                                                    
                                                                                                    
                                                                                                    
                                                                                                    
                                                                                                    
                                                                                                    
                                                                                                    
                                                                                                    
                                                                                                    
                                                                                                    
                                                                                                    
                                                                                                    
                                                                                                    
                           
<?xpacket end="w"?></metadata>
<defs>
    <style>
      .cls-1 {
        fill: #fff;
        fill-rule: evenodd;
      }
    </style>
  </defs>
  <path id="_-e-思科智造云" data-name="-e-思科智造云" class="cls-1" d="M294.176,85.535a3.644,3.644,0,0,1-1.728-.36,4.073,4.073,0,0,1-2.375-2.376,3.681,3.681,0,0,1-.4-1.728V71.713a3.631,3.631,0,0,1,.4-1.764,4.453,4.453,0,0,1,2.375-2.412,4.787,4.787,0,0,1,1.728-.36h18.286a4.787,4.787,0,0,1,1.728.36,4.706,4.706,0,0,1,2.375,2.412,4.071,4.071,0,0,1,.36,1.764v9.359a4.135,4.135,0,0,1-.36,1.728,4.28,4.28,0,0,1-2.375,2.376,3.644,3.644,0,0,1-1.728.36H294.176Zm6.263,14.038a4.484,4.484,0,0,1-1.727-.36,4.16,4.16,0,0,1-2.412-2.268,3.409,3.409,0,0,1-.36-1.584V88.235a1.175,1.175,0,0,1,1.188-1.188h0.036a1.154,1.154,0,0,1,1.188,1.188v7.127a1.569,1.569,0,0,0,.612,1.224,2.261,2.261,0,0,0,1.475.54h10.295a1.223,1.223,0,0,1,1.188,1.188v0.072a1.223,1.223,0,0,1-1.188,1.188H300.439Zm12.023-16.414a2.056,2.056,0,0,0,1.44-.648,2.018,2.018,0,0,0,.612-1.44v-3.6H304.4v5.687h8.063Zm-19.726-.648a1.992,1.992,0,0,0,1.44.648h7.775V77.472h-9.863v3.6A2.056,2.056,0,0,0,292.736,82.511Zm21.778-7.451V71.713a1.98,1.98,0,0,0-.612-1.476,2.018,2.018,0,0,0-1.44-.612H304.4V75.06h10.115Zm-21.778-4.823a2.011,2.011,0,0,0-.648,1.476V75.06h9.863V69.625h-7.775A1.958,1.958,0,0,0,292.736,70.237ZM318.9,97.845a1.142,1.142,0,0,1-.828,1.476l-0.072.036a1.176,1.176,0,0,1-1.44-.828l-3.023-10.295a1.154,1.154,0,0,1,.828-1.512h0.036a1.2,1.2,0,0,1,1.475.792Zm-26.313-9.791a44.853,44.853,0,0,1-1.116,5.651c-0.467,1.656-1.007,3.24-1.583,4.787a1.145,1.145,0,0,1-.648.648,1.065,1.065,0,0,1-.936,0l-0.108-.036a1.164,1.164,0,0,1-.612-1.512c0.576-1.476,1.08-3.024,1.548-4.607a43.786,43.786,0,0,0,1.044-5.255,1.175,1.175,0,0,1,1.331-1.008h0.072A1.139,1.139,0,0,1,292.592,88.055Zm13.967,4.751a1.2,1.2,0,0,1-1.188,1.188H305.3a1.2,1.2,0,0,1-1.188-1.188V88.235a1.175,1.175,0,0,1,1.188-1.188h0.072a1.175,1.175,0,0,1,1.188,1.188v4.571Zm17.93-16.63a1.154,1.154,0,0,1-1.188-1.188V74.916a1.2,1.2,0,0,1,1.188-1.188h4.571V70.561l-4.031.288a1.2,1.2,0,0,1-1.3-1.08V69.7a1.2,1.2,0,0,1,1.116-1.26l10.331-.72a1.181,1.181,0,0,1,1.3,1.08v0.072a1.2,1.2,0,0,1-1.08,1.26l-3.887.288v3.312h4.247a1.223,1.223,0,0,1,1.188,1.188v0.072a1.175,1.175,0,0,1-1.188,1.188h-4.247V98.025a1.2,1.2,0,0,1-1.188,1.188h-0.072a1.2,1.2,0,0,1-1.188-1.188V76.176h-4.571Zm29.8,14.47a1.192,1.192,0,0,1,1.152,1.188V91.87a1.168,1.168,0,0,1-1.152,1.188h-2.16v5.363a1.175,1.175,0,0,1-1.187,1.188h-0.108a1.175,1.175,0,0,1-1.188-1.188V93.058H339.607a1.175,1.175,0,0,1-1.188-1.188V91.834a1.2,1.2,0,0,1,1.188-1.188H349.65V68.221a1.175,1.175,0,0,1,1.188-1.188h0.108a1.175,1.175,0,0,1,1.187,1.188V90.646h2.16Zm-31.136,6.911c0.36-1.872.684-4.067,0.936-6.659a106.27,106.27,0,0,0,.468-10.619v-0.9a1.2,1.2,0,0,1,1.188-1.188h0.036a1.175,1.175,0,0,1,1.188,1.188v0.9a108.643,108.643,0,0,1-.468,10.907,49.748,49.748,0,0,1-.936,6.839,1.164,1.164,0,0,1-1.44.9h-0.072A1.145,1.145,0,0,1,323.157,97.557ZM334.136,79.38a1.2,1.2,0,0,1,1.187-1.188H335.4a1.223,1.223,0,0,1,1.188,1.188V97.665a1.191,1.191,0,0,1-1.188,1.152h-0.072a1.168,1.168,0,0,1-1.187-1.152V79.38Zm12.67-5.075a1.212,1.212,0,0,1,.684,1.548l-0.036.072a1.133,1.133,0,0,1-1.476.684l-5.759-2.088a1.216,1.216,0,0,1-.72-1.548l0.036-.036a1.205,1.205,0,0,1,1.512-.72Zm0,9.9a1.2,1.2,0,0,1,.684,1.548l-0.036.072a1.163,1.163,0,0,1-1.476.684l-5.759-2.088a1.216,1.216,0,0,1-.72-1.548l0.036-.072a1.218,1.218,0,0,1,1.512-.684Zm18.4,15.586a3.806,3.806,0,0,1-1.44-.288,3.908,3.908,0,0,1-2.339-3.564V89.207a3.857,3.857,0,0,1,2.339-3.528,3.249,3.249,0,0,1,1.44-.324h20.41a3.249,3.249,0,0,1,1.44.324,3.824,3.824,0,0,1,2.3,3.528v6.731a3.875,3.875,0,0,1-2.3,3.564,3.806,3.806,0,0,1-1.44.288H365.2Zm16.558-16.018a3.825,3.825,0,0,1-3.815-3.851V72.109a3.484,3.484,0,0,1,.288-1.476,3.851,3.851,0,0,1,3.527-2.376h5.867a3.87,3.87,0,0,1,2.736,1.152,3.752,3.752,0,0,1,1.116,2.7V79.92a3.8,3.8,0,0,1-2.376,3.527,3.4,3.4,0,0,1-1.476.324h-5.867ZM363.44,69.481h11.339a1.2,1.2,0,0,1,1.188,1.188V70.7a1.2,1.2,0,0,1-1.188,1.188h-5.363l-0.036,1.548a9.459,9.459,0,0,1-.144,1.764h5.975a1.175,1.175,0,0,1,1.188,1.188v0.072a1.175,1.175,0,0,1-1.188,1.188h-4.175l4.643,3.924a1.179,1.179,0,0,1,.432.828,1.215,1.215,0,0,1-.324.9,1.186,1.186,0,0,1-1.656.108l-5.975-4.967a9.217,9.217,0,0,1-1.188,1.728,14.774,14.774,0,0,1-5.867,3.96,1.537,1.537,0,0,1-.9-0.036,1.21,1.21,0,0,1-.648-0.684l-0.036-.072a1.254,1.254,0,0,1,.72-1.512,12.732,12.732,0,0,0,4.787-3.132,6.986,6.986,0,0,0,.756-1.044h-5a1.2,1.2,0,0,1-1.188-1.188V76.392a1.2,1.2,0,0,1,1.188-1.188h6.011a9.145,9.145,0,0,0,.18-1.764V71.893h-5.363a1.185,1.185,0,0,1-1.116-1.62l0.792-1.98a1.139,1.139,0,0,1,1.512-.648h0.072a1.146,1.146,0,0,1,.647.648,1.067,1.067,0,0,1,0,.936Zm24.189,11.843a1.355,1.355,0,0,0,1.008-.4,1.2,1.2,0,0,0,.432-1.008V72.109a1.2,1.2,0,0,0-.432-1.008,1.355,1.355,0,0,0-1.008-.4h-5.867a1.5,1.5,0,0,0-1.044.4,1.414,1.414,0,0,0-.4,1.008V79.92a1.371,1.371,0,0,0,1.44,1.4h5.867Zm-2.015,16.054a1.458,1.458,0,0,0,.972-0.4,1.44,1.44,0,0,0,.4-1.044v-2.2H363.836v2.2a1.44,1.44,0,0,0,.4,1.044,1.458,1.458,0,0,0,.972.4h20.41Zm1.368-6.047V89.207a1.5,1.5,0,0,0-.4-1.044,1.458,1.458,0,0,0-.972-0.4H365.2a1.458,1.458,0,0,0-.972.4,1.5,1.5,0,0,0-.4,1.044V91.33h23.146Zm15.878-4.391a4.416,4.416,0,0,1,.36-1.656,4.239,4.239,0,0,1,2.268-2.268,3.709,3.709,0,0,1,1.656-.36h12.634a4.277,4.277,0,0,1,3.024,1.26,4.38,4.38,0,0,1,1.295,3.024v3.924a4.6,4.6,0,0,1-.36,1.692,4.492,4.492,0,0,1-2.267,2.268,4.425,4.425,0,0,1-1.692.324H407.144a4.245,4.245,0,0,1-1.656-.324,4.494,4.494,0,0,1-2.268-2.268,4.6,4.6,0,0,1-.36-1.692V86.939Zm-0.144-6.515a1.154,1.154,0,0,1-1.188-1.188V79.2a1.146,1.146,0,0,1,1.188-1.152h9.935V73.081h-8.459a1.181,1.181,0,0,1-1.08-1.692l1.584-3.348a1.184,1.184,0,0,1,2.16.972l-0.72,1.62h6.515V68.221a1.2,1.2,0,0,1,1.188-1.188h0.072a1.2,1.2,0,0,1,1.188,1.188v2.412h8.458a1.2,1.2,0,0,1,1.188,1.188v0.072a1.175,1.175,0,0,1-1.188,1.188H415.1v4.967h9.718a1.146,1.146,0,0,1,1.188,1.152v0.036a1.154,1.154,0,0,1-1.188,1.188h-22.1Zm2.592,10.439a1.791,1.791,0,0,0,.54,1.332,1.767,1.767,0,0,0,1.3.54h12.634a1.873,1.873,0,0,0,1.368-.54,1.762,1.762,0,0,0,.5-1.332V86.939a1.735,1.735,0,0,0-.5-1.3,1.873,1.873,0,0,0-1.368-.54H407.144a1.844,1.844,0,0,0-1.836,1.836v3.924Zm-4.536,8.783a4.169,4.169,0,0,1-1.727-.4,4.4,4.4,0,0,1-2.7-4.139V77.292a1.175,1.175,0,0,1,1.188-1.188h0.072a1.2,1.2,0,0,1,1.188,1.188V95.11a2.068,2.068,0,0,0,.575,1.476,2,2,0,0,0,1.4.612h23.865a1.175,1.175,0,0,1,1.188,1.188v0.072a1.2,1.2,0,0,1-1.188,1.188H400.772Zm-1.979-26.961a1.2,1.2,0,0,1-1.188,1.188h-0.072a1.175,1.175,0,0,1-1.188-1.188V68.869a1.175,1.175,0,0,1,1.188-1.188h0.072a1.2,1.2,0,0,1,1.188,1.188v3.816Zm63.14,6.011a1.2,1.2,0,0,1,1.188,1.188v0.072a1.2,1.2,0,0,1-1.188,1.188h-21.7l-3.78,15.37H456.93a2.057,2.057,0,0,0,1.44-.648,1.958,1.958,0,0,0,.612-1.44v-5.9a1.191,1.191,0,0,1,1.151-1.188h0.072a1.175,1.175,0,0,1,1.188,1.188v5.9a3.786,3.786,0,0,1-.36,1.764,4.512,4.512,0,0,1-2.375,2.376,4.135,4.135,0,0,1-1.728.36H435.081a1.047,1.047,0,0,1-.9-0.432,1.138,1.138,0,0,1-.252-1.044l3.887-16.306h-5a1.2,1.2,0,0,1-1.188-1.188V79.884a1.2,1.2,0,0,1,1.188-1.188h29.12ZM460.6,68.761a1.175,1.175,0,0,1,1.188,1.188v0.072a1.154,1.154,0,0,1-1.188,1.188H434.145a1.154,1.154,0,0,1-1.188-1.188V69.949a1.175,1.175,0,0,1,1.188-1.188H460.6Z" transform="translate(-287.5 -67.031)"/>
</svg>
