<?xml version="1.0" encoding="utf-8"?>
<!-- Generator: Adobe Illustrator 21.0.2, SVG Export Plug-In . SVG Version: 6.00 Build 0)  -->
<svg version="1.1" id="图层_1" xmlns="http://www.w3.org/2000/svg" xmlns:xlink="http://www.w3.org/1999/xlink" x="0px" y="0px"
	 viewBox="0 0 36 36" style="enable-background:new 0 0 36 36;" xml:space="preserve">
<style type="text/css">
	.st0{fill:#FFFFFF;}
</style>
<path id="_-e-menu" class="st0" d="M18,1C8.6,1,1,8.6,1,18s7.6,17,17,17c9.4,0,17-7.6,17-17C35,8.6,27.4,1,18,1z M18,2.3
	c8.4,0,15.3,6.6,15.7,15H2.3C2.7,8.9,9.6,2.3,18,2.3L18,2.3z M18,33.7c-3.5,0-6.8-1.1-9.6-3.3h19.2C24.8,32.6,21.5,33.7,18,33.7
	L18,33.7z M29.1,29.1H6.9c-0.8-0.8-1.5-1.7-2.1-2.6h26.4C30.6,27.5,29.9,28.3,29.1,29.1L29.1,29.1z M31.9,25.2c-0.1,0-0.1,0-0.2,0
	H4.3c-0.1,0-0.1,0-0.2,0c-0.4-0.9-0.8-1.7-1.1-2.7h30C32.7,23.5,32.4,24.4,31.9,25.2L31.9,25.2z M33.4,21.3H2.6
	c-0.2-0.9-0.3-1.7-0.3-2.6h31.4C33.6,19.5,33.5,20.4,33.4,21.3L33.4,21.3z"/>
</svg>
