<svg xmlns="http://www.w3.org/2000/svg" width="31" height="38" viewBox="0 0 31 38">
  <metadata><?xpacket begin="﻿" id="W5M0MpCehiHzreSzNTczkc9d"?>
<x:xmpmeta xmlns:x="adobe:ns:meta/" x:xmptk="Adobe XMP Core 5.6-c138 79.159824, 2016/09/14-01:09:01        ">
   <rdf:RDF xmlns:rdf="http://www.w3.org/1999/02/22-rdf-syntax-ns#">
      <rdf:Description rdf:about=""/>
   </rdf:RDF>
</x:xmpmeta>
                                                                                                    
                                                                                                    
                                                                                                    
                                                                                                    
                                                                                                    
                                                                                                    
                                                                                                    
                                                                                                    
                                                                                                    
                                                                                                    
                                                                                                    
                                                                                                    
                                                                                                    
                                                                                                    
                                                                                                    
                                                                                                    
                                                                                                    
                                                                                                    
                                                                                                    
                                                                                                    
                           
<?xpacket end="w"?></metadata>
<defs>
    <style>
      .cls-1 {
        fill: none;
        stroke: #fff;
        stroke-width: 2px;
        fill-rule: evenodd;
      }
    </style>
  </defs>
  <path id="_-e-User" data-name="-e-User" class="cls-1" d="M705.5,82.293a8.158,8.158,0,1,0-7.724-8.147A7.952,7.952,0,0,0,705.5,82.293Zm4.8,0.729a0.807,0.807,0,0,0-.7.423l-4.1,7.372-4.1-7.372a0.807,0.807,0,0,0-.7-0.423A9.988,9.988,0,0,0,691,93.253v1.468l3.162-3.336a0.784,0.784,0,0,1,1.149,0,0.891,0.891,0,0,1,0,1.212L691,97.144v3.644l3.824-4.034a0.784,0.784,0,0,1,1.149,0,0.89,0.89,0,0,1,0,1.211L692.147,102h3.383l4.32-4.556a0.782,0.782,0,0,1,1.148,0,0.888,0.888,0,0,1,0,1.211L697.827,102h21.359a0.835,0.835,0,0,0,.812-0.857v-7.89A9.988,9.988,0,0,0,710.3,83.022Z" transform="translate(-690 -65)"/>
</svg>
