<svg 
 xmlns="http://www.w3.org/2000/svg"
 xmlns:xlink="http://www.w3.org/1999/xlink"
 width="216px" height="19px">
<defs>
<linearGradient id="PSgrad_0" x1="50%" x2="0%" y1="86.603%" y2="0%">
  <stop offset="0%" stop-color="rgb(0,153,255)" stop-opacity="1" />
  <stop offset="100%" stop-color="rgb(102,204,51)" stop-opacity="1" />
</linearGradient>

</defs>
<path fill-rule="evenodd"  fill="rgb(204, 204, 204)"
 d="M215.890,17.439 L215.890,17.870 L204.036,17.870 L204.036,1.134 L215.460,1.134 L215.460,1.566 L204.466,1.566 L204.466,9.157 L214.945,9.157 L214.945,9.588 L204.466,9.588 L204.466,17.439 L215.890,17.439 ZM189.018,18.043 C184.322,17.639 181.859,14.822 181.631,9.588 C181.975,4.298 184.436,1.451 189.018,1.048 C192.454,1.164 194.773,2.745 195.976,5.793 L195.632,5.879 C194.372,3.004 192.167,1.509 189.018,1.393 C184.723,1.854 182.375,4.585 181.975,9.588 C182.147,14.650 184.494,17.324 189.018,17.611 C192.798,17.668 195.117,16.002 195.976,12.608 L196.405,12.694 C195.489,16.317 193.026,18.099 189.018,18.043 ZM173.914,1.134 L174.344,1.134 L174.344,17.870 L173.914,17.870 L173.914,1.134 ZM160.443,17.870 L153.227,1.221 L153.657,1.048 L160.614,17.352 L167.658,1.048 L168.001,1.221 L160.872,17.870 L160.443,17.870 ZM147.830,17.956 L141.302,10.192 L134.859,10.192 L134.859,17.870 L134.430,17.870 L134.430,1.221 L141.216,1.221 C145.051,1.393 147.085,2.889 147.314,5.706 C147.428,8.697 145.625,10.192 141.903,10.192 L148.173,17.697 L147.830,17.956 ZM146.885,5.706 C146.713,3.062 144.823,1.682 141.216,1.566 L134.859,1.566 L134.859,9.761 L141.216,9.761 C145.167,9.877 147.057,8.525 146.885,5.706 ZM115.031,1.134 L126.455,1.134 L126.455,1.566 L115.461,1.566 L115.461,9.157 L125.940,9.157 L125.940,9.588 L115.461,9.588 L115.461,17.439 L126.885,17.439 L126.885,17.870 L115.031,17.870 L115.031,1.134 ZM107.314,13.729 C107.314,16.606 105.223,18.043 101.044,18.043 C97.436,18.043 95.174,16.403 94.258,13.125 L94.602,13.039 C95.403,16.088 97.551,17.611 101.044,17.611 C104.995,17.611 106.941,16.317 106.885,13.729 C107.113,11.717 105.109,10.337 100.872,9.588 C96.749,8.784 94.774,7.317 94.946,5.189 C95.231,2.486 97.179,1.078 100.786,0.962 C103.763,1.078 105.825,2.458 106.971,5.103 L106.541,5.275 C105.511,2.803 103.591,1.509 100.786,1.393 C97.407,1.509 95.603,2.773 95.375,5.189 C95.203,7.087 97.063,8.410 100.958,9.157 C105.425,9.963 107.543,11.486 107.314,13.729 ZM66.542,1.134 L77.966,1.134 L77.966,1.566 L66.971,1.566 L66.971,9.157 L77.450,9.157 L77.450,9.588 L66.971,9.588 L66.971,17.439 L78.395,17.439 L78.395,17.870 L66.542,17.870 L66.542,1.134 ZM58.825,17.956 L52.297,10.192 L45.855,10.192 L45.855,17.870 L45.425,17.870 L45.425,1.221 L52.211,1.221 C56.047,1.393 58.080,2.889 58.309,5.706 C58.423,8.697 56.620,10.192 52.898,10.192 L59.168,17.697 L58.825,17.956 ZM57.880,5.706 C57.708,3.062 55.818,1.682 52.211,1.566 L45.855,1.566 L45.855,9.761 L52.211,9.761 C56.162,9.877 58.052,8.525 57.880,5.706 ZM21.560,9.588 C22.018,4.356 24.708,1.479 29.634,0.962 C34.558,1.479 37.249,4.356 37.708,9.588 C37.249,14.764 34.558,17.553 29.634,17.956 C24.708,17.553 22.018,14.764 21.560,9.588 ZM29.634,1.393 C24.996,1.854 22.447,4.585 21.989,9.588 C22.447,14.535 24.996,17.209 29.634,17.611 C34.272,17.209 36.820,14.535 37.279,9.588 C36.820,4.585 34.272,1.854 29.634,1.393 ZM7.487,18.043 C2.791,17.639 0.328,14.822 0.100,9.588 C0.443,4.298 2.905,1.451 7.487,1.048 C10.923,1.164 13.242,2.745 14.444,5.793 L14.101,5.879 C12.840,3.004 10.635,1.509 7.487,1.393 C3.192,1.854 0.843,4.585 0.443,9.588 C0.615,14.650 2.962,17.324 7.487,17.611 C11.266,17.668 13.585,16.002 14.444,12.608 L14.874,12.694 C13.957,16.317 11.494,18.099 7.487,18.043 Z"/>
<path fill="url(#PSgrad_0)"
 d="M215.890,17.439 L215.890,17.870 L204.036,17.870 L204.036,1.134 L215.460,1.134 L215.460,1.566 L204.466,1.566 L204.466,9.157 L214.945,9.157 L214.945,9.588 L204.466,9.588 L204.466,17.439 L215.890,17.439 ZM189.018,18.043 C184.322,17.639 181.859,14.822 181.631,9.588 C181.975,4.298 184.436,1.451 189.018,1.048 C192.454,1.164 194.773,2.745 195.976,5.793 L195.632,5.879 C194.372,3.004 192.167,1.509 189.018,1.393 C184.723,1.854 182.375,4.585 181.975,9.588 C182.147,14.650 184.494,17.324 189.018,17.611 C192.798,17.668 195.117,16.002 195.976,12.608 L196.405,12.694 C195.489,16.317 193.026,18.099 189.018,18.043 ZM173.914,1.134 L174.344,1.134 L174.344,17.870 L173.914,17.870 L173.914,1.134 ZM160.443,17.870 L153.227,1.221 L153.657,1.048 L160.614,17.352 L167.658,1.048 L168.001,1.221 L160.872,17.870 L160.443,17.870 ZM147.830,17.956 L141.302,10.192 L134.859,10.192 L134.859,17.870 L134.430,17.870 L134.430,1.221 L141.216,1.221 C145.051,1.393 147.085,2.889 147.314,5.706 C147.428,8.697 145.625,10.192 141.903,10.192 L148.173,17.697 L147.830,17.956 ZM146.885,5.706 C146.713,3.062 144.823,1.682 141.216,1.566 L134.859,1.566 L134.859,9.761 L141.216,9.761 C145.167,9.877 147.057,8.525 146.885,5.706 ZM115.031,1.134 L126.455,1.134 L126.455,1.566 L115.461,1.566 L115.461,9.157 L125.940,9.157 L125.940,9.588 L115.461,9.588 L115.461,17.439 L126.885,17.439 L126.885,17.870 L115.031,17.870 L115.031,1.134 ZM107.314,13.729 C107.314,16.606 105.223,18.043 101.044,18.043 C97.436,18.043 95.174,16.403 94.258,13.125 L94.602,13.039 C95.403,16.088 97.551,17.611 101.044,17.611 C104.995,17.611 106.941,16.317 106.885,13.729 C107.113,11.717 105.109,10.337 100.872,9.588 C96.749,8.784 94.774,7.317 94.946,5.189 C95.231,2.486 97.179,1.078 100.786,0.962 C103.763,1.078 105.825,2.458 106.971,5.103 L106.541,5.275 C105.511,2.803 103.591,1.509 100.786,1.393 C97.407,1.509 95.603,2.773 95.375,5.189 C95.203,7.087 97.063,8.410 100.958,9.157 C105.425,9.963 107.543,11.486 107.314,13.729 ZM66.542,1.134 L77.966,1.134 L77.966,1.566 L66.971,1.566 L66.971,9.157 L77.450,9.157 L77.450,9.588 L66.971,9.588 L66.971,17.439 L78.395,17.439 L78.395,17.870 L66.542,17.870 L66.542,1.134 ZM58.825,17.956 L52.297,10.192 L45.855,10.192 L45.855,17.870 L45.425,17.870 L45.425,1.221 L52.211,1.221 C56.047,1.393 58.080,2.889 58.309,5.706 C58.423,8.697 56.620,10.192 52.898,10.192 L59.168,17.697 L58.825,17.956 ZM57.880,5.706 C57.708,3.062 55.818,1.682 52.211,1.566 L45.855,1.566 L45.855,9.761 L52.211,9.761 C56.162,9.877 58.052,8.525 57.880,5.706 ZM21.560,9.588 C22.018,4.356 24.708,1.479 29.634,0.962 C34.558,1.479 37.249,4.356 37.708,9.588 C37.249,14.764 34.558,17.553 29.634,17.956 C24.708,17.553 22.018,14.764 21.560,9.588 ZM29.634,1.393 C24.996,1.854 22.447,4.585 21.989,9.588 C22.447,14.535 24.996,17.209 29.634,17.611 C34.272,17.209 36.820,14.535 37.279,9.588 C36.820,4.585 34.272,1.854 29.634,1.393 ZM7.487,18.043 C2.791,17.639 0.328,14.822 0.100,9.588 C0.443,4.298 2.905,1.451 7.487,1.048 C10.923,1.164 13.242,2.745 14.444,5.793 L14.101,5.879 C12.840,3.004 10.635,1.509 7.487,1.393 C3.192,1.854 0.843,4.585 0.443,9.588 C0.615,14.650 2.962,17.324 7.487,17.611 C11.266,17.668 13.585,16.002 14.444,12.608 L14.874,12.694 C13.957,16.317 11.494,18.099 7.487,18.043 Z"/>
</svg>