<?xml version="1.0" encoding="utf-8"?>
<!-- Generator: Adobe Illustrator 21.0.2, SVG Export Plug-In . SVG Version: 6.00 Build 0)  -->
<svg version="1.1" id="图层_1" xmlns="http://www.w3.org/2000/svg" xmlns:xlink="http://www.w3.org/1999/xlink" x="0px" y="0px"
	 viewBox="0 0 58 62" style="enable-background:new 0 0 58 62;" xml:space="preserve">
<style type="text/css">
	.st0{fill:#49ACFF;}
	.st1{fill:#FFFFFF;}
	.st2{fill:none;stroke:#000000;stroke-width:1.9063;stroke-linejoin:round;}
</style>
<title>数字制造中心</title>
<path class="st0" d="M49.5,10.6c0,2.6-2.2,4.6-4.9,4.6c-2.7,0-4.9-2.1-4.9-4.6s2.2-4.6,4.9-4.6C47.3,5.9,49.5,8,49.5,10.6"/>
<path class="st0" d="M16.3,16.2c0,2.6-2.2,4.6-4.9,4.6s-4.9-2.1-4.9-4.6s2.2-4.6,4.9-4.6S16.3,13.6,16.3,16.2"/>
<path class="st0" d="M20.2,59.8V41.3c0-4.6,3.9-8.4,8.8-8.4s8.8,3.7,8.8,8.4v18.6"/>
<path class="st1" d="M33.9,41.3c0,2.6-2.2,4.6-4.9,4.6s-4.9-2.1-4.9-4.6c0-2.6,2.2-4.6,4.9-4.6S33.9,38.7,33.9,41.3"/>
<path class="st2" d="M20.2,59.8V41.3c0-4.6,3.9-8.4,8.8-8.4s8.8,3.7,8.8,8.4v18.6"/>
<path class="st2" d="M33.9,42.2c0,2.6-2.2,4.6-4.9,4.6s-4.9-2.1-4.9-4.6"/>
<line class="st2" x1="23.1" y1="51.5" x2="34.9" y2="51.5"/>
<line class="st2" x1="23.1" y1="55.2" x2="34.9" y2="55.2"/>
<line class="st2" x1="26.1" y1="16.2" x2="8.5" y2="16.2"/>
<line class="st2" x1="30" y1="16.2" x2="28" y2="16.2"/>
<line class="st2" x1="32.9" y1="30.1" x2="32.9" y2="13.4"/>
<line class="st2" x1="19.2" y1="16.2" x2="19.2" y2="5.9"/>
<polyline class="st2" points="29,13.4 29,10.6 41.7,10.6 "/>
<line class="st2" x1="29" y1="30.1" x2="29" y2="22.7"/>
<polyline class="st2" points="35.8,19.9 44.6,19.9 44.6,5.9 "/>
<polyline class="st2" points="25.1,30.1 25.1,19.9 30,19.9 "/>
<line class="st2" x1="43.7" y1="3.2" x2="45.6" y2="3.2"/>
<line class="st2" x1="18.2" y1="3.2" x2="20.2" y2="3.2"/>
<line class="st2" x1="47.6" y1="10.6" x2="49.5" y2="10.6"/>
<line class="st2" x1="51.5" y1="10.6" x2="53.4" y2="10.6"/>
<line class="st2" x1="55.4" y1="10.6" x2="57.3" y2="10.6"/>
<line class="st2" x1="53.4" y1="25.5" x2="55.4" y2="25.5"/>
<line class="st2" x1="4.6" y1="16.2" x2="6.5" y2="16.2"/>
<line class="st2" x1="0.7" y1="16.2" x2="2.6" y2="16.2"/>
<line class="st2" x1="2.6" y1="6.9" x2="4.6" y2="6.9"/>
<line class="st2" x1="10.4" y1="3.2" x2="12.4" y2="3.2"/>
<polyline class="st2" points="11.4,19 11.4,23.6 21.2,23.6 21.2,30.1 "/>
<polyline class="st2" points="11.4,13.4 11.4,6.9 6.5,6.9 "/>
<polyline class="st2" points="51.5,25.5 36.8,25.5 36.8,30.1 "/>
<line class="st2" x1="22.2" y1="19.9" x2="20.2" y2="19.9"/>
<line class="st2" x1="18.2" y1="19.9" x2="16.3" y2="19.9"/>
<polyline class="st2" points="32.9,7.8 32.9,3.2 22.2,3.2 "/>
<polyline class="st2" points="48.5,22.7 48.5,19.9 55.4,19.9 "/>
<line class="st2" x1="40.7" y1="38.5" x2="42.7" y2="38.5"/>
<line class="st2" x1="40.7" y1="42.2" x2="42.7" y2="42.2"/>
<line class="st2" x1="40.7" y1="45.9" x2="42.7" y2="45.9"/>
<line class="st2" x1="15.3" y1="38.5" x2="17.3" y2="38.5"/>
<line class="st2" x1="15.3" y1="42.2" x2="17.3" y2="42.2"/>
<line class="st2" x1="15.3" y1="45.9" x2="17.3" y2="45.9"/>
<line class="st2" x1="18.2" y1="27.3" x2="10.4" y2="27.3"/>
<line class="st2" x1="8.5" y1="27.3" x2="6.5" y2="27.3"/>
</svg>
