<?xml version="1.0" encoding="utf-8"?>
<!-- Generator: Adobe Illustrator 21.0.2, SVG Export Plug-In . SVG Version: 6.00 Build 0)  -->
<svg version="1.1" id="图层_1" xmlns="http://www.w3.org/2000/svg" xmlns:xlink="http://www.w3.org/1999/xlink" x="0px" y="0px"
	 viewBox="0 0 58 56" style="enable-background:new 0 0 58 56;" xml:space="preserve">
<style type="text/css">
	.st0{fill:#FFFFFF;}
	.st1{clip-path:url(#SVGID_2_);}
	.st2{fill:none;stroke:#000000;stroke-width:1.9895;stroke-miterlimit:10;}
	.st3{clip-path:url(#SVGID_4_);}
	.st4{fill:#49ACFF;}
</style>
<title>订单可视化</title>
<rect x="1.6" y="0.7" class="st0" width="54.7" height="54.7"/>
<g>
	<defs>
		<rect id="SVGID_1_" x="0.7" y="-0.3" width="56.7" height="56.7"/>
	</defs>
	<clipPath id="SVGID_2_">
		<use xlink:href="#SVGID_1_"  style="overflow:visible;"/>
	</clipPath>
	<g class="st1">
		<rect x="1.6" y="0.7" class="st2" width="54.7" height="54.7"/>
		<line class="st2" x1="1.6" y1="8.8" x2="56.4" y2="8.8"/>
		<line class="st2" x1="4.6" y1="4.7" x2="6.5" y2="4.7"/>
	</g>
	<use xlink:href="#SVGID_1_"  style="overflow:visible;fill:none;stroke:#000000;stroke-width:0.9948;stroke-miterlimit:10;"/>
</g>
<line class="st2" x1="8.5" y1="4.7" x2="10.4" y2="4.7"/>
<line class="st2" x1="12.4" y1="4.7" x2="14.3" y2="4.7"/>
<g>
	<defs>
		<rect id="SVGID_3_" x="0.7" y="-0.3" width="56.7" height="56.7"/>
	</defs>
	<clipPath id="SVGID_4_">
		<use xlink:href="#SVGID_3_"  style="overflow:visible;"/>
	</clipPath>
	<g class="st3">
		<line class="st2" x1="17.3" y1="0.7" x2="17.3" y2="8.8"/>
	</g>
	<use xlink:href="#SVGID_3_"  style="overflow:visible;fill:none;stroke:#000000;stroke-width:0.9948;stroke-miterlimit:10;"/>
</g>
<rect x="6.5" y="13.8" class="st4" width="45" height="6.1"/>
<rect x="6.5" y="21.9" class="st4" width="45" height="6.1"/>
<line class="st2" x1="20.2" y1="4.7" x2="53.4" y2="4.7"/>
<rect x="6.5" y="30" class="st4" width="45" height="16.2"/>
<line class="st2" x1="8.5" y1="16.9" x2="18.2" y2="16.9"/>
<line class="st2" x1="8.5" y1="25" x2="18.2" y2="25"/>
<line class="st2" x1="41.7" y1="49.3" x2="51.5" y2="49.3"/>
<line class="st2" x1="8.5" y1="33.1" x2="18.2" y2="33.1"/>
</svg>
