<svg id="图层_1" data-name="图层 1" xmlns="http://www.w3.org/2000/svg" viewBox="0 0 58 58"><defs><style>.cls-1{fill:#fff;}.cls-2{fill:#45a4e5;}.cls-3,.cls-4,.cls-5{fill:none;}.cls-3,.cls-4{stroke:#4d5152;stroke-width:2px;}.cls-3{stroke-linejoin:round;}.cls-4{stroke-miterlimit:10;}</style></defs><title>互联机器</title><path class="cls-1" d="M1,41.43V6.21A5.18,5.18,0,0,1,6.19,1H51.82A5.18,5.18,0,0,1,57,6.18V41.43a5.18,5.18,0,0,1-5.18,5.18H6.25a5.18,5.18,0,0,1-5.18-5.18h0" transform="translate(0 0)"/><path class="cls-2" d="M53.86,40.39a3.11,3.11,0,0,1-3.11,3.11H45.57V35.21h8.29Z" transform="translate(0 0)"/><path class="cls-2" d="M7.25,43.5a3.11,3.11,0,0,1-3.11-3.11h0V35.21h8.29V43.5Z" transform="translate(0 0)"/><path class="cls-2" d="M4.14,7.25A3.11,3.11,0,0,1,7.25,4.14h5.18v8.29H4.14Z" transform="translate(0 0)"/><path class="cls-2" d="M50.75,4.14a3.11,3.11,0,0,1,3.11,3.11h0v5.18H45.57V4.14Z" transform="translate(0 0)"/><rect class="cls-2" x="35.21" y="35.21" width="8.29" height="8.29"/><rect class="cls-2" x="24.86" y="35.21" width="8.29" height="8.29"/><rect class="cls-2" x="14.5" y="35.21" width="8.29" height="8.29"/><rect class="cls-2" x="35.21" y="4.14" width="8.29" height="8.29"/><rect class="cls-2" x="24.86" y="4.14" width="8.29" height="8.29"/><rect class="cls-2" x="14.5" y="4.14" width="8.29" height="8.29"/><rect class="cls-2" x="35.21" y="14.5" width="8.29" height="8.29"/><rect class="cls-2" x="24.86" y="14.5" width="8.29" height="8.29"/><rect class="cls-2" x="14.5" y="14.5" width="8.29" height="8.29"/><rect class="cls-2" x="4.14" y="14.5" width="8.29" height="8.29"/><rect class="cls-2" x="45.57" y="14.5" width="8.29" height="8.29"/><rect class="cls-2" x="35.21" y="24.86" width="8.29" height="8.29"/><rect class="cls-2" x="24.86" y="24.86" width="8.29" height="8.29"/><rect class="cls-2" x="14.5" y="24.86" width="8.29" height="8.29"/><rect class="cls-2" x="4.14" y="24.86" width="8.29" height="8.29"/><rect class="cls-2" x="45.57" y="24.86" width="8.29" height="8.29"/><rect class="cls-3" x="1.04" y="1.04" width="55.93" height="45.57" rx="5.18" ry="5.18"/><line class="cls-3" x1="12.43" y1="13.46" x2="14.5" y2="13.46"/><line class="cls-3" x1="12.43" y1="23.82" x2="14.5" y2="23.82"/><line class="cls-3" x1="12.43" y1="34.18" x2="14.5" y2="34.18"/><line class="cls-3" x1="22.79" y1="13.46" x2="24.86" y2="13.46"/><line class="cls-3" x1="22.79" y1="23.82" x2="24.86" y2="23.82"/><line class="cls-3" x1="22.79" y1="34.18" x2="24.86" y2="34.18"/><line class="cls-3" x1="33.14" y1="13.46" x2="35.21" y2="13.46"/><line class="cls-3" x1="33.14" y1="23.82" x2="35.21" y2="23.82"/><line class="cls-3" x1="33.14" y1="34.18" x2="35.21" y2="34.18"/><line class="cls-3" x1="43.5" y1="13.46" x2="45.57" y2="13.46"/><line class="cls-3" x1="43.5" y1="23.82" x2="45.57" y2="23.82"/><line class="cls-3" x1="43.5" y1="34.18" x2="45.57" y2="34.18"/><line class="cls-3" x1="12.43" y1="44.54" x2="14.5" y2="44.54"/><line class="cls-3" x1="22.79" y1="44.54" x2="24.86" y2="44.54"/><line class="cls-3" x1="33.14" y1="44.54" x2="35.21" y2="44.54"/><line class="cls-3" x1="43.5" y1="44.54" x2="45.57" y2="44.54"/><line class="cls-3" x1="12.43" y1="3.11" x2="14.5" y2="3.11"/><line class="cls-3" x1="22.79" y1="3.11" x2="24.86" y2="3.11"/><line class="cls-3" x1="33.14" y1="3.11" x2="35.21" y2="3.11"/><line class="cls-3" x1="43.5" y1="3.11" x2="45.57" y2="3.11"/><line class="cls-3" x1="53.86" y1="13.46" x2="55.93" y2="13.46"/><line class="cls-3" x1="53.86" y1="23.82" x2="55.93" y2="23.82"/><line class="cls-3" x1="53.86" y1="34.18" x2="55.93" y2="34.18"/><line class="cls-3" x1="2.07" y1="13.46" x2="4.14" y2="13.46"/><line class="cls-3" x1="2.07" y1="23.82" x2="4.14" y2="23.82"/><line class="cls-3" x1="2.07" y1="34.18" x2="4.14" y2="34.18"/><polyline class="cls-4" points="53.86 56.96 34.18 56.96 34.18 49.71"/><polyline class="cls-4" points="4.14 56.96 23.82 56.96 23.82 49.71"/><rect class="cls-1" x="24.86" y="49.71" width="8.29" height="8.29"/><rect class="cls-5" width="58" height="58"/></svg>