<?xml version="1.0" encoding="utf-8"?>
<!-- Generator: Adobe Illustrator 21.0.2, SVG Export Plug-In . SVG Version: 6.00 Build 0)  -->
<svg version="1.1" id="图层_1" xmlns="http://www.w3.org/2000/svg" xmlns:xlink="http://www.w3.org/1999/xlink" x="0px" y="0px"
	 viewBox="0 0 59.4 47.5" style="enable-background:new 0 0 59.4 47.5;" xml:space="preserve">
<style type="text/css">
	.st0{fill:#FFFFFF;}
	.st1{fill:#49ACFF;}
	.st2{fill:none;stroke:#000000;stroke-width:2.1987;stroke-miterlimit:10;}
	.st3{fill:none;stroke:#000000;stroke-width:2.1987;stroke-linecap:round;stroke-miterlimit:10;}
</style>
<title>企业协作</title>
<path class="st0" d="M38.8,5.7H20.6l-11.9,15v1.2l3.7,4.6V30l16.5,20.8c0.5,0.6,1.1,1,1.8,1.2c1.5,0,2.7-1.6,2.7-3.5
	c-0.1-0.9-0.4-1.7-0.9-2.3l1.8,2.3c0.5,0.6,1.1,1,1.8,1.2c1.5,0,2.7-1.6,2.7-3.5c-0.1-0.9-0.4-1.7-0.9-2.3l0.9,1.2
	c0.5,0.6,1.1,1,1.8,1.2c1.5,0,2.7-1.6,2.7-3.5c-0.1-0.9-0.4-1.7-0.9-2.3l-1.8-2.3c0.5,0.6,1.1,1,1.8,1.2c1.5,0,2.8-1.5,2.8-3.4
	c0,0,0,0,0-0.1c-0.1-0.9-0.4-1.7-0.9-2.3l-0.9-1.2h1l3.7-4.6v-2.3l2.7-3.5v-1.2L38.8,5.7z"/>
<path class="st0" d="M16.9,37c-0.5,0.6-1.1,1-1.8,1.2c-1.5,0-2.7-1.6-2.7-3.5c0.1-0.9,0.4-1.7,0.9-2.3L16.9,37z"/>
<path class="st0" d="M20.6,41.6c-0.5,0.6-1.1,1-1.8,1.2c-1.5,0-2.7-1.6-2.7-3.5c0.1-0.9,0.4-1.7,0.9-2.3L20.6,41.6z"/>
<path class="st0" d="M24.2,46.2c-0.5,0.6-1.1,1-1.8,1.2c-1.5,0-2.7-1.6-2.7-3.5c0.1-0.9,0.4-1.7,0.9-2.3L24.2,46.2z"/>
<polyline class="st1" points="1.4,16.1 6.8,23 23.3,2.2 17.8,-4.7 "/>
<path class="st0" d="M27.9,50.8c-0.5,0.6-1.1,1-1.8,1.2c-1.5,0-2.7-1.6-2.7-3.5c0.1-0.9,0.4-1.7,0.9-2.3L27.9,50.8z"/>
<polyline class="st1" points="58.1,16.1 52.6,23 36.1,2.2 41.6,-4.7 "/>
<line class="st2" x1="20.6" y1="5.7" x2="38.8" y2="5.7"/>
<polyline class="st3" points="50.7,21.9 48,25.4 48,27.7 44.3,32.3 "/>
<line class="st3" x1="32.4" y1="27.7" x2="42.5" y2="40.4"/>
<path class="st3" d="M44.4,33.5c0.5,0.6,0.8,1.4,0.9,2.3c0,1.9-1.2,3.5-2.7,3.5c-0.7-0.1-1.3-0.5-1.8-1.2"/>
<path class="st3" d="M42.5,40.4c0.5,0.6,0.8,1.4,0.9,2.3c0,1.9-1.2,3.5-2.7,3.5c-0.7-0.1-1.3-0.5-1.8-1.2L28.8,32.3"/>
<path class="st3" d="M37.9,43.9c0.5,0.6,0.8,1.4,0.9,2.3c0,1.9-1.2,3.5-2.7,3.5c-0.7-0.1-1.3-0.5-1.8-1.2L25.1,37"/>
<path class="st3" d="M32.5,46.2c0.5,0.6,0.8,1.4,0.9,2.3c0,1.9-1.2,3.5-2.7,3.5c-0.7-0.1-1.3-0.5-1.8-1.2L12.3,30v-3.5l-3.7-4.6"/>
<path class="st3" d="M16.9,37c-0.5,0.6-1.1,1-1.8,1.2c-1.5,0-2.7-1.6-2.7-3.5c0.1-0.9,0.4-1.7,0.9-2.3"/>
<path class="st3" d="M20.6,41.6c-0.5,0.6-1.1,1-1.8,1.2c-1.5,0-2.7-1.6-2.7-3.5c0.1-0.9,0.4-1.7,0.9-2.3"/>
<path class="st3" d="M24.2,46.2c-0.5,0.6-1.1,1-1.8,1.2c-1.5,0-2.7-1.6-2.7-3.5c0.1-0.9,0.4-1.7,0.9-2.3"/>
<path class="st3" d="M27.9,50.8c-0.5,0.6-1.1,1-1.8,1.2c-1.5,0-2.7-1.6-2.7-3.5c0.1-0.9,0.4-1.7,0.9-2.3"/>
<path class="st3" d="M44.4,33.5l-11.9-15v-6.9h-2.7l-4.6,5.8c-0.5,0.6-1.1,1-1.8,1.2c-1.5,0-2.7-1.6-2.7-3.5
	c0.1-0.9,0.4-1.7,0.9-2.3L27,5.7"/>
<path class="st2" d="M39.8,17.3c0,1.9-1.2,3.5-2.7,3.5h-2.7"/>
<polyline class="st2" points="58.1,16.1 52.6,23 36.1,2.2 41.6,-4.7 "/>
<polyline class="st2" points="1.4,16.1 6.8,23 23.3,2.2 17.8,-4.7 "/>
<line class="st3" x1="50.7" y1="13.8" x2="52.6" y2="16.1"/>
<line class="st3" x1="6.8" y1="16.1" x2="8.7" y2="13.8"/>
</svg>
