<?xml version="1.0" encoding="utf-8"?>
<!-- Generator: Adobe Illustrator 21.0.2, SVG Export Plug-In . SVG Version: 6.00 Build 0)  -->
<svg version="1.1" id="图层_1" xmlns="http://www.w3.org/2000/svg" xmlns:xlink="http://www.w3.org/1999/xlink" x="0px" y="0px"
	 viewBox="0 0 56.7 56.7" style="enable-background:new 0 0 56.7 56.7;" xml:space="preserve">
<style type="text/css">
	.st0{fill:#FFFFFF;}
	.st1{fill:none;stroke:#000000;stroke-width:1.8722;stroke-miterlimit:10;}
	.st2{fill:#49ACFF;}
</style>
<g>
	<title>企业数据集市</title>
	<path class="st0" d="M44.4,36.4c5.6,0,10.1-4.6,10.1-10.3c0-5.1-3.3-9.4-8.5-9.4c0-4.3-2.6-7.7-7.6-7.7h-0.9
		c-2.4-4.3-6.9-6.9-11.8-6.8c-7.4,0-13.5,6.1-13.5,13.7c-5.5,0.2-9.9,4.9-9.7,10.5c0.2,5.4,4.5,9.8,9.8,10H44.4z"/>
	<path class="st1" d="M35,36.4h9.3c5.6,0,10.1-4.6,10.1-10.3c0-5.1-3.3-9.4-8.5-9.4c0-4.3-2.6-7.7-7.6-7.7h-0.9
		c-2.4-4.3-6.9-6.9-11.8-6.8c-7.4,0-13.5,6.1-13.5,13.7c-5.5,0.2-9.9,4.9-9.7,10.5c0.2,5.4,4.5,9.8,9.8,10h9.3"/>
	<path class="st1" d="M17.4,16.7c0-5.2,4.2-9.4,8.5-9.4"/>
	<path class="st1" d="M25.8,28.6v11.2c0,1.9-1.5,3.4-3.3,3.4l0,0H5.6"/>
	<path class="st1" d="M30.9,28.6v19.8c0,1.9,1.5,3.4,3.3,3.4h16.9"/>
	<path class="st2" d="M55.3,51.8c0,2.4-1.9,4.3-4.3,4.3c-2.3,0-4.2-2-4.2-4.3c0-2.4,1.9-4.3,4.2-4.3l0,0
		C53.4,47.5,55.3,49.4,55.3,51.8"/>
	<path class="st2" d="M21.7,43.3c0,2.4-1.9,4.3-4.2,4.3s-4.2-1.9-4.3-4.3s1.9-4.3,4.2-4.3l0,0l0,0C19.8,39.1,21.7,41,21.7,43.3"/>
	<path class="st2" d="M9.9,43.3c0,2.4-1.9,4.3-4.2,4.3s-4.2-1.9-4.3-4.3S3.3,39,5.6,39l0,0l0,0C8,39.1,9.8,41,9.9,43.3"/>
	<path class="st2" d="M43.5,51.8c0,2.4-1.9,4.3-4.3,4.3c-2.3,0-4.2-2-4.2-4.3c0-2.4,1.9-4.3,4.2-4.3l0,0
		C41.6,47.5,43.5,49.4,43.5,51.8"/>
	<line class="st1" x1="4.7" y1="43.3" x2="6.5" y2="43.3"/>
	<line class="st1" x1="16.6" y1="43.3" x2="18.2" y2="43.3"/>
	<line class="st1" x1="38.5" y1="51.8" x2="40.1" y2="51.8"/>
	<line class="st1" x1="50.2" y1="51.8" x2="51.9" y2="51.8"/>
	<line class="st1" x1="21.7" y1="27.9" x2="35" y2="27.9"/>
</g>
</svg>
