<?xml version="1.0" encoding="utf-8"?>
<!-- Generator: Adobe Illustrator 21.0.2, SVG Export Plug-In . SVG Version: 6.00 Build 0)  -->
<svg version="1.1" id="图层_1" xmlns="http://www.w3.org/2000/svg" xmlns:xlink="http://www.w3.org/1999/xlink" x="0px" y="0px"
	 viewBox="0 0 58 56" style="enable-background:new 0 0 58 56;" xml:space="preserve">
<style type="text/css">
	.st0{fill:#FFFFFF;}
	.st1{fill:#49ACFF;}
	.st2{clip-path:url(#SVGID_2_);}
	.st3{fill:none;stroke:#000000;stroke-width:1.9895;stroke-miterlimit:10;}
	.st4{clip-path:url(#SVGID_4_);}
</style>
<title>互联工厂</title>
<rect x="1.6" y="0.7" class="st0" width="54.7" height="54.7"/>
<rect x="4.6" y="11.8" class="st1" width="48.9" height="40.5"/>
<g>
	<defs>
		<rect id="SVGID_1_" x="0.7" y="-0.3" width="56.7" height="56.7"/>
	</defs>
	<clipPath id="SVGID_2_">
		<use xlink:href="#SVGID_1_"  style="overflow:visible;"/>
	</clipPath>
	<g class="st2">
		<rect x="1.6" y="0.7" class="st3" width="54.7" height="54.7"/>
		<line class="st3" x1="1.6" y1="8.8" x2="56.4" y2="8.8"/>
	</g>
	<use xlink:href="#SVGID_1_"  style="overflow:visible;fill:none;stroke:#000000;stroke-width:0.9826;stroke-miterlimit:10;"/>
</g>
<line class="st3" x1="4.6" y1="4.7" x2="6.5" y2="4.7"/>
<line class="st3" x1="8.5" y1="4.7" x2="10.4" y2="4.7"/>
<line class="st3" x1="12.4" y1="4.7" x2="14.3" y2="4.7"/>
<g>
	<defs>
		<rect id="SVGID_3_" x="0.7" y="-0.3" width="56.7" height="56.7"/>
	</defs>
	<clipPath id="SVGID_4_">
		<use xlink:href="#SVGID_3_"  style="overflow:visible;"/>
	</clipPath>
	<g class="st4">
		<line class="st3" x1="17.3" y1="0.7" x2="17.3" y2="8.8"/>
	</g>
	<use xlink:href="#SVGID_3_"  style="overflow:visible;fill:none;stroke:#000000;stroke-width:0.9826;stroke-miterlimit:10;"/>
</g>
<line class="st3" x1="20.2" y1="4.7" x2="53.4" y2="4.7"/>
<polygon class="st0" points="41.7,29 41.7,47.2 16.3,47.2 16.3,29 29,20.9 "/>
<polygon class="st0" points="43.7,30 29,20.9 14.3,30 12.4,27 29,16.9 45.6,27 "/>
<polygon class="st3" points="43.7,30 29,20.9 14.3,30 12.4,27 29,16.9 45.6,27 "/>
<polyline class="st3" points="41.7,29 41.7,47.2 16.3,47.2 16.3,29 "/>
<polyline class="st1" points="24.1,46.2 24.1,35.1 33.9,35.1 33.9,46.2 "/>
<polyline class="st3" points="24.1,47.2 24.1,35.1 33.9,35.1 33.9,47.2 "/>
<line class="st3" x1="24.1" y1="35.1" x2="21.2" y2="35.1"/>
<line class="st3" x1="33.9" y1="35.1" x2="36.8" y2="35.1"/>
</svg>
