<svg xmlns="http://www.w3.org/2000/svg" width="33" height="36" viewBox="0 0 33 36">
  <metadata><?xpacket begin="﻿" id="W5M0MpCehiHzreSzNTczkc9d"?>
<x:xmpmeta xmlns:x="adobe:ns:meta/" x:xmptk="Adobe XMP Core 5.6-c138 79.159824, 2016/09/14-01:09:01        ">
   <rdf:RDF xmlns:rdf="http://www.w3.org/1999/02/22-rdf-syntax-ns#">
      <rdf:Description rdf:about=""/>
   </rdf:RDF>
</x:xmpmeta>
                                                                                                    
                                                                                                    
                                                                                                    
                                                                                                    
                                                                                                    
                                                                                                    
                                                                                                    
                                                                                                    
                                                                                                    
                                                                                                    
                                                                                                    
                                                                                                    
                                                                                                    
                                                                                                    
                                                                                                    
                                                                                                    
                                                                                                    
                                                                                                    
                                                                                                    
                                                                                                    
                           
<?xpacket end="w"?></metadata>
<defs>
    <style>
      .cls-1 {
        fill: #fff;
        fill-rule: evenodd;
      }
    </style>
  </defs>
  <path id="menu" class="cls-1" d="M34.963,75.962A4.981,4.981,0,1,0,30,70.981,4.976,4.976,0,0,0,34.963,75.962Zm0-7.442a2.461,2.461,0,1,1-2.445,2.461A2.457,2.457,0,0,1,34.963,68.52Zm0,20.461A4.981,4.981,0,1,0,30,84,4.976,4.976,0,0,0,34.963,88.981Zm0-7.442A2.461,2.461,0,1,1,32.518,84,2.457,2.457,0,0,1,34.963,81.539Zm0,20.461A4.981,4.981,0,1,0,30,97.019,4.976,4.976,0,0,0,34.963,102Zm0-7.442a2.461,2.461,0,1,1-2.452,2.461A2.457,2.457,0,0,1,34.963,94.558ZM42.84,70.746A1.261,1.261,0,0,0,44.1,72.01H61.741a1.264,1.264,0,0,0,0-2.527H44.1A1.261,1.261,0,0,0,42.84,70.746Zm1.018,14.51H61.5a1.26,1.26,0,0,0,0-2.52H43.857A1.26,1.26,0,0,0,43.857,85.256Zm0,13.026H61.5a1.26,1.26,0,0,0,0-2.52H43.857A1.26,1.26,0,0,0,43.857,98.282Z" transform="translate(-30 -66)"/>
</svg>
