<svg id="组_80" data-name="组 80" xmlns="http://www.w3.org/2000/svg" viewBox="0 0 96.38 96.38"><defs><style>.cls-1,.cls-2{fill:#49acff;}.cls-1{opacity:0.25;isolation:isolate;}.cls-3{fill:none;stroke:#fff;stroke-linecap:round;stroke-linejoin:round;}</style></defs><title>6-环境健康-hover</title><circle id="椭圆_1_拷贝" data-name="椭圆 1 拷贝" class="cls-1" cx="48.19" cy="48.19" r="48.19"/><circle id="椭圆_1_拷贝_4" data-name="椭圆 1 拷贝 4" class="cls-2" cx="48.19" cy="48.19" r="42.52"/><path class="cls-3" d="M58.65,63.53l4,4,4.88-4.88-4-4a20.38,20.38,0,0,0,1.73-5h5.6V48.44h-5.6a20.35,20.35,0,0,0-1.73-5l4-4-4.88-4.88-4,4a20.29,20.29,0,0,0-5-1.73v-5.6H48.44v5.6a20.31,20.31,0,0,0-5,1.73l-4-4-4.88,4.88,4,4a20.39,20.39,0,0,0-1.73,5h-5.6v5.18h5.6a20.38,20.38,0,0,0,1.73,5l-4,4,4.88,4.88,4-4" transform="translate(-2.83 -2.83)"/><line class="cls-3" x1="45.6" y1="62.86" x2="50.78" y2="62.86"/><line class="cls-3" x1="45.6" y1="66.31" x2="50.78" y2="66.31"/><line class="cls-3" x1="48.19" y1="66.31" x2="48.19" y2="68.03"/><path class="cls-3" d="M61.15,51.1A9.86,9.86,0,0,0,51,41.53,9.86,9.86,0,0,0,40.9,51.1c0,4.36,3.32,8,7.54,9.18v2h5.18v-2C57.83,59.13,61.15,55.46,61.15,51.1Z" transform="translate(-2.83 -2.83)"/></svg>