<svg id="组_80" data-name="组 80" xmlns="http://www.w3.org/2000/svg" viewBox="0 0 96.38 96.38"><defs><style>.cls-1,.cls-2{fill:#49acff;}.cls-1{opacity:0.25;isolation:isolate;}.cls-3{fill:none;stroke:#fff;stroke-linejoin:round;}</style></defs><title>2-制造和供应链-hover</title><circle id="椭圆_1_拷贝" data-name="椭圆 1 拷贝" class="cls-1" cx="48.19" cy="48.19" r="48.19"/><circle id="椭圆_1_拷贝_4" data-name="椭圆 1 拷贝 4" class="cls-2" cx="48.19" cy="48.19" r="42.52"/><circle class="cls-3" cx="48.19" cy="48.19" r="19.84"/><path class="cls-3" d="M45.78,35.91a19.87,19.87,0,0,1-.72-3.81" transform="translate(-2.83 -2.83)"/><path class="cls-3" d="M60.87,50.05a20.17,20.17,0,0,1-12.08-7.92" transform="translate(-2.83 -2.83)"/><path class="cls-3" d="M70.78,49.18a17.61,17.61,0,0,1-3,.88" transform="translate(-2.83 -2.83)"/><path class="cls-3" d="M57,61.69a41.56,41.56,0,0,1-10.6,8.63" transform="translate(-2.83 -2.83)"/><path class="cls-3" d="M62.79,53.16a43.5,43.5,0,0,1-2.56,4.49" transform="translate(-2.83 -2.83)"/><path class="cls-3" d="M67.05,39.32a40.79,40.79,0,0,1-1.6,7.47" transform="translate(-2.83 -2.83)"/><path class="cls-3" d="M36.86,59c-1.38-.32-3.17-.69-4.49-1.1" transform="translate(-2.83 -2.83)"/><path class="cls-3" d="M48.44,60.41a64.35,64.35,0,0,1-8.27-.75" transform="translate(-2.83 -2.83)"/><path class="cls-3" d="M56.16,60.4c-.89.06-1.66,0-2.55,0" transform="translate(-2.83 -2.83)"/><path class="cls-3" d="M69.52,58.21a67.83,67.83,0,0,1-8.28,1.49" transform="translate(-2.83 -2.83)"/><path class="cls-3" d="M43.62,38.63a19.72,19.72,0,0,1-5.78-2.43" transform="translate(-2.83 -2.83)"/><path class="cls-3" d="M61.51,34.17a20.57,20.57,0,0,1-11,5" transform="translate(-2.83 -2.83)"/><path class="cls-3" d="M52.53,62.51a36.65,36.65,0,0,1,3.91,7.55" transform="translate(-2.83 -2.83)"/><path class="cls-3" d="M43.33,53.39a39.18,39.18,0,0,1,6.06,5" transform="translate(-2.83 -2.83)"/><path class="cls-3" d="M31.29,49A29.87,29.87,0,0,1,37,50.41" transform="translate(-2.83 -2.83)"/><path class="cls-3" d="M37.8,61.25a25.2,25.2,0,0,1-1.73,2.83" transform="translate(-2.83 -2.83)"/><path class="cls-3" d="M39.76,55.23a23.5,23.5,0,0,1-.63,2.83" transform="translate(-2.83 -2.83)"/><path class="cls-3" d="M35.54,38.56a21.16,21.16,0,0,1,4.25,9.74" transform="translate(-2.83 -2.83)"/><circle class="cls-3" cx="44.2" cy="36.33" r="3.45"/><circle class="cls-3" cx="37.33" cy="48.94" r="3.45"/><circle class="cls-3" cx="35.61" cy="56.82" r="1.73"/><circle class="cls-3" cx="48.19" cy="57.57" r="2.59"/><circle class="cls-3" cx="55.82" cy="56.87" r="2.59"/><circle class="cls-3" cx="61.49" cy="47.22" r="3.45"/></svg>