<svg id="组_80" data-name="组 80" xmlns="http://www.w3.org/2000/svg" viewBox="0 0 96.38 96.38"><defs><style>.cls-1,.cls-2{fill:#49acff;}.cls-1{opacity:0.25;isolation:isolate;}.cls-3,.cls-4{fill:none;stroke:#fff;stroke-linejoin:round;}.cls-4{stroke-linecap:round;}.cls-5{fill:#fff;}</style></defs><title>3-库存与质量-hover</title><circle id="椭圆_1_拷贝" data-name="椭圆 1 拷贝" class="cls-1" cx="48.19" cy="48.19" r="48.19"/><circle id="椭圆_1_拷贝_4" data-name="椭圆 1 拷贝 4" class="cls-2" cx="48.19" cy="48.19" r="42.52"/><circle class="cls-3" cx="57.68" cy="57.68" r="6.9"/><line class="cls-4" x1="62.56" y1="62.56" x2="68.03" y2="68.03"/><polyline class="cls-4" points="59.4 45.6 28.35 45.6 28.35 36.97 59.4 36.97 59.4 47.33"/><circle class="cls-4" cx="43.88" cy="41.29" r="0.86"/><circle class="cls-4" cx="49.05" cy="41.29" r="0.86"/><circle class="cls-4" cx="54.23" cy="41.29" r="0.86"/><circle class="cls-4" cx="33.52" cy="41.29" r="1.73"/><polyline class="cls-4" points="28.35 36.97 28.35 28.35 59.4 28.35 59.4 36.97"/><circle class="cls-4" cx="43.88" cy="32.66" r="0.86"/><circle class="cls-4" cx="49.05" cy="32.66" r="0.86"/><circle class="cls-4" cx="54.23" cy="32.66" r="0.86"/><circle class="cls-4" cx="33.52" cy="32.66" r="1.73"/><polyline class="cls-4" points="28.35 45.6 28.35 54.23 47.33 54.23"/><circle class="cls-4" cx="43.88" cy="49.91" r="0.86"/><circle class="cls-4" cx="49.05" cy="49.91" r="0.86"/><circle class="cls-4" cx="33.52" cy="49.91" r="1.73"/><line class="cls-4" x1="36.97" y1="61.13" x2="46.46" y2="61.13"/><line class="cls-4" x1="43.88" y1="54.23" x2="43.88" y2="61.13"/><path class="cls-5" d="M32.91,63.1a.86.86,0,1,0,.86.86.86.86,0,0,0-.86-.86Z" transform="translate(-2.83 -2.83)"/><path class="cls-5" d="M36.36,63.1a.86.86,0,1,0,.86.86.86.86,0,0,0-.86-.86Z" transform="translate(-2.83 -2.83)"/></svg>