<svg id="组_80" data-name="组 80" xmlns="http://www.w3.org/2000/svg" viewBox="0 0 96.38 96.38"><defs><style>.cls-1,.cls-2{fill:#49acff;}.cls-1{opacity:0.25;isolation:isolate;}.cls-3{fill:none;stroke:#fff;stroke-linejoin:round;}</style></defs><title>1-研发管理-hover</title><circle id="椭圆_1_拷贝" data-name="椭圆 1 拷贝" class="cls-1" cx="48.19" cy="48.19" r="48.19"/><circle id="椭圆_1_拷贝_4" data-name="椭圆 1 拷贝 4" class="cls-2" cx="48.19" cy="48.19" r="42.52"/><polyline class="cls-3" points="49.95 53.51 49.95 57.25 46.5 57.25 46.5 53.51"/><circle class="cls-3" cx="48.23" cy="48.62" r="5.18"/><line class="cls-3" x1="48.19" y1="39.13" x2="48.19" y2="40.86"/><line class="cls-3" x1="54.91" y1="41.88" x2="53.69" y2="43.1"/><line class="cls-3" x1="57.68" y1="48.62" x2="55.95" y2="48.62"/><line class="cls-3" x1="54.91" y1="55.3" x2="53.69" y2="54.08"/><line class="cls-3" x1="41.49" y1="55.3" x2="42.71" y2="54.08"/><line class="cls-3" x1="38.7" y1="48.62" x2="40.42" y2="48.62"/><line class="cls-3" x1="41.49" y1="41.88" x2="42.71" y2="43.1"/><path class="cls-3" d="M65.18,44.82c0-8.68-8.2-13.64-15.64-13.64a16.24,16.24,0,0,0-16.39,16.5c0,5.25,1.73,10.18,6.9,13.25v9.94H57.31v-6c3.45,0,5.21-.23,6.42-1.44,1.55-1.55,1.4-8.09,1.4-8.09s1.47.06,2.58,0a1.29,1.29,0,0,0,1-.53,2,2,0,0,0,.18-1.09C69.08,51,65.18,46.2,65.18,44.82Z" transform="translate(-2.83 -2.83)"/></svg>