<svg id="图层_1" data-name="图层 1" xmlns="http://www.w3.org/2000/svg" viewBox="0 0 79.87 79.87"><defs><style>.cls-1{fill:#fff;stroke-width:0.5px;}.cls-1,.cls-2,.cls-3{stroke:#49acff;}.cls-2,.cls-3{fill:none;stroke-linejoin:round;}.cls-3{stroke-linecap:round;}.cls-4{fill:#49acff;}</style></defs><title>3-库存与质量</title><circle id="椭圆_1" data-name="椭圆 1" class="cls-1" cx="39.94" cy="39.94" r="39.69"/><circle class="cls-2" cx="51.43" cy="51.42" r="6.9"/><line class="cls-3" x1="56.3" y1="56.3" x2="61.78" y2="61.78"/><polyline class="cls-3" points="53.15 39.35 22.09 39.35 22.09 30.72 53.15 30.72 53.15 41.07"/><circle class="cls-3" cx="37.62" cy="35.03" r="0.86"/><circle class="cls-3" cx="42.8" cy="35.03" r="0.86"/><circle class="cls-3" cx="47.97" cy="35.03" r="0.86"/><circle class="cls-3" cx="27.27" cy="35.03" r="1.73"/><polyline class="cls-3" points="22.09 30.72 22.09 22.09 53.15 22.09 53.15 30.72"/><circle class="cls-3" cx="37.62" cy="26.41" r="0.86"/><circle class="cls-3" cx="42.8" cy="26.41" r="0.86"/><circle class="cls-3" cx="47.97" cy="26.41" r="0.86"/><circle class="cls-3" cx="27.27" cy="26.41" r="1.73"/><polyline class="cls-3" points="22.09 39.35 22.09 47.97 41.07 47.97"/><circle class="cls-3" cx="37.62" cy="43.66" r="0.86"/><circle class="cls-3" cx="42.8" cy="43.66" r="0.86"/><circle class="cls-3" cx="27.27" cy="43.66" r="1.73"/><line class="cls-3" x1="30.72" y1="54.88" x2="40.21" y2="54.88"/><line class="cls-3" x1="37.62" y1="47.97" x2="37.62" y2="54.88"/><path class="cls-4" d="M26.4,56.6a.86.86,0,1,0,.86.86.86.86,0,0,0-.86-.86Z" transform="translate(-2.58 -2.58)"/><path class="cls-4" d="M29.85,56.6a.86.86,0,1,0,.86.86.86.86,0,0,0-.86-.86Z" transform="translate(-2.58 -2.58)"/></svg>