<svg id="图层_1" data-name="图层 1" xmlns="http://www.w3.org/2000/svg" viewBox="0 0 79.87 79.87"><defs><style>.cls-1{fill:#fff;stroke-width:0.5px;}.cls-1,.cls-2{stroke:#49acff;}.cls-2{fill:none;stroke-linejoin:round;}</style></defs><title>1-研发管理</title><circle id="椭圆_1" data-name="椭圆 1" class="cls-1" cx="39.94" cy="39.94" r="39.69"/><polyline class="cls-2" points="41.7 45.25 41.7 48.99 38.25 48.99 38.25 45.25"/><circle class="cls-2" cx="39.97" cy="40.37" r="5.18"/><line class="cls-2" x1="39.94" y1="30.88" x2="39.94" y2="32.6"/><line class="cls-2" x1="46.65" y1="33.63" x2="45.44" y2="34.85"/><line class="cls-2" x1="49.42" y1="40.37" x2="47.7" y2="40.37"/><line class="cls-2" x1="46.65" y1="47.05" x2="45.44" y2="45.83"/><line class="cls-2" x1="33.24" y1="47.05" x2="34.46" y2="45.83"/><line class="cls-2" x1="30.45" y1="40.37" x2="32.17" y2="40.37"/><line class="cls-2" x1="33.24" y1="33.63" x2="34.46" y2="34.85"/><path class="cls-2" d="M56.68,36.32c0-8.68-8.2-13.64-15.64-13.64a16.24,16.24,0,0,0-16.39,16.5c0,5.25,1.73,10.18,6.9,13.25v9.94H48.81v-6c3.45,0,5.21-.23,6.42-1.44,1.55-1.55,1.4-8.09,1.4-8.09s1.47.06,2.58,0a1.29,1.29,0,0,0,1-.53,2,2,0,0,0,.18-1.09C60.58,42.46,56.68,37.7,56.68,36.32Z" transform="translate(-2.58 -2.58)"/></svg>