<svg id="组_80" data-name="组 80" xmlns="http://www.w3.org/2000/svg" viewBox="0 0 96.38 96.38"><defs><style>.cls-1,.cls-2{fill:#49acff;}.cls-1{opacity:0.25;isolation:isolate;}.cls-3,.cls-4{fill:none;stroke:#fff;stroke-linejoin:round;}.cls-4{stroke-linecap:round;}</style></defs><title>5-售后服务-hover</title><circle id="椭圆_1_拷贝" data-name="椭圆 1 拷贝" class="cls-1" cx="48.19" cy="48.19" r="48.19"/><circle id="椭圆_1_拷贝_4" data-name="椭圆 1 拷贝 4" class="cls-2" cx="48.19" cy="48.19" r="42.52"/><path class="cls-3" d="M70.87,48.88C70.87,57.82,62,65.07,51,65.07a23.81,23.81,0,0,1-7-1l-11.4,5.31,4.47-8.91a14.86,14.86,0,0,1-6-11.56c0-8.94,8.88-16.19,19.84-16.19S70.87,39.94,70.87,48.88Z" transform="translate(-2.83 -2.83)"/><path class="cls-4" d="M41.53,45.63a3.45,3.45,0,1,1,6.9,0" transform="translate(-2.83 -2.83)"/><path class="cls-4" d="M60.51,45.63a3.45,3.45,0,1,0-6.9,0" transform="translate(-2.83 -2.83)"/><path class="cls-4" d="M39.81,49.95a7.79,7.79,0,0,0,7.76,7.76h6.9a7.79,7.79,0,0,0,7.76-7.76" transform="translate(-2.83 -2.83)"/></svg>