<svg id="图层_1" data-name="图层 1" xmlns="http://www.w3.org/2000/svg" viewBox="0 0 79.87 79.87"><defs><style>.cls-1{fill:#fff;stroke-width:0.5px;}.cls-1,.cls-2{stroke:#49acff;}.cls-2{fill:none;stroke-linejoin:round;}</style></defs><title>2-制造和供应链</title><circle id="椭圆_1" data-name="椭圆 1" class="cls-1" cx="39.94" cy="39.94" r="39.69"/><circle class="cls-2" cx="39.94" cy="39.94" r="19.84"/><path class="cls-2" d="M37.28,27.4a19.87,19.87,0,0,1-.72-3.81" transform="translate(-2.58 -2.58)"/><path class="cls-2" d="M52.37,41.55a20.17,20.17,0,0,1-12.08-7.92" transform="translate(-2.58 -2.58)"/><path class="cls-2" d="M62.28,40.67a17.61,17.61,0,0,1-3,.88" transform="translate(-2.58 -2.58)"/><path class="cls-2" d="M48.49,53.19a41.56,41.56,0,0,1-10.6,8.63" transform="translate(-2.58 -2.58)"/><path class="cls-2" d="M54.29,44.66a43.5,43.5,0,0,1-2.56,4.49" transform="translate(-2.58 -2.58)"/><path class="cls-2" d="M58.55,30.82A40.79,40.79,0,0,1,57,38.29" transform="translate(-2.58 -2.58)"/><path class="cls-2" d="M28.36,50.45c-1.38-.32-3.17-.69-4.49-1.1" transform="translate(-2.58 -2.58)"/><path class="cls-2" d="M39.93,51.9a64.35,64.35,0,0,1-8.27-.75" transform="translate(-2.58 -2.58)"/><path class="cls-2" d="M47.66,51.9c-.89.06-1.66,0-2.55,0" transform="translate(-2.58 -2.58)"/><path class="cls-2" d="M61,49.71a67.83,67.83,0,0,1-8.28,1.49" transform="translate(-2.58 -2.58)"/><path class="cls-2" d="M35.12,30.12a19.72,19.72,0,0,1-5.78-2.43" transform="translate(-2.58 -2.58)"/><path class="cls-2" d="M53,25.67a20.57,20.57,0,0,1-11,5" transform="translate(-2.58 -2.58)"/><path class="cls-2" d="M44,54a36.65,36.65,0,0,1,3.91,7.55" transform="translate(-2.58 -2.58)"/><path class="cls-2" d="M34.82,44.88a39.18,39.18,0,0,1,6.06,5" transform="translate(-2.58 -2.58)"/><path class="cls-2" d="M22.78,40.49a29.87,29.87,0,0,1,5.71,1.42" transform="translate(-2.58 -2.58)"/><path class="cls-2" d="M29.29,52.75a25.2,25.2,0,0,1-1.73,2.83" transform="translate(-2.58 -2.58)"/><path class="cls-2" d="M31.26,46.73a23.5,23.5,0,0,1-.63,2.83" transform="translate(-2.58 -2.58)"/><path class="cls-2" d="M27,30.05a21.16,21.16,0,0,1,4.25,9.74" transform="translate(-2.58 -2.58)"/><circle class="cls-2" cx="35.94" cy="28.07" r="3.45"/><circle class="cls-2" cx="29.08" cy="40.69" r="3.45"/><circle class="cls-2" cx="27.35" cy="48.56" r="1.73"/><circle class="cls-2" cx="39.94" cy="49.32" r="2.59"/><circle class="cls-2" cx="47.56" cy="48.62" r="2.59"/><circle class="cls-2" cx="53.24" cy="38.96" r="3.45"/></svg>