<svg id="图层_1" data-name="图层 1" xmlns="http://www.w3.org/2000/svg" viewBox="0 0 79.87 79.87"><defs><style>.cls-1{fill:#fff;stroke-width:0.5px;}.cls-1,.cls-2,.cls-3{stroke:#49acff;}.cls-2,.cls-3{fill:none;stroke-linejoin:round;}.cls-3{stroke-linecap:round;}</style></defs><title>5-售后服务</title><circle id="椭圆_1" data-name="椭圆 1" class="cls-1" cx="39.94" cy="39.94" r="39.69"/><path class="cls-2" d="M62.36,40.38c0,8.94-8.88,16.19-19.84,16.19a23.81,23.81,0,0,1-7-1l-11.4,5.31,4.47-8.91a14.86,14.86,0,0,1-6-11.56c0-8.94,8.88-16.19,19.84-16.19S62.36,31.44,62.36,40.38Z" transform="translate(-2.58 -2.58)"/><path class="cls-3" d="M33,37.13a3.45,3.45,0,1,1,6.9,0" transform="translate(-2.58 -2.58)"/><path class="cls-3" d="M52,37.13a3.45,3.45,0,1,0-6.9,0" transform="translate(-2.58 -2.58)"/><path class="cls-3" d="M31.3,41.44a7.79,7.79,0,0,0,7.76,7.76H46a7.79,7.79,0,0,0,7.76-7.76" transform="translate(-2.58 -2.58)"/></svg>