<svg id="图层_1" data-name="图层 1" xmlns="http://www.w3.org/2000/svg" viewBox="0 0 79.87 79.87"><defs><style>.cls-1{fill:#fff;stroke-width:0.5px;}.cls-1,.cls-2{stroke:#49acff;}.cls-2{fill:none;stroke-linecap:round;stroke-linejoin:round;}</style></defs><title>6-环境健康</title><circle id="椭圆_1" data-name="椭圆 1" class="cls-1" cx="39.94" cy="39.94" r="39.69"/><path class="cls-2" d="M50.15,55l4,4L59,54.11l-4-4a20.38,20.38,0,0,0,1.73-5h5.6V39.93h-5.6a20.35,20.35,0,0,0-1.73-5l4-4L54.11,26l-4,4a20.29,20.29,0,0,0-5-1.73v-5.6H39.93v5.6a20.31,20.31,0,0,0-5,1.73l-4-4L26,30.93l4,4a20.39,20.39,0,0,0-1.73,5h-5.6v5.18h5.6a20.38,20.38,0,0,0,1.73,5l-4,4L30.93,59l4-4" transform="translate(-2.58 -2.58)"/><line class="cls-2" x1="37.35" y1="54.6" x2="42.52" y2="54.6"/><line class="cls-2" x1="37.35" y1="58.05" x2="42.52" y2="58.05"/><line class="cls-2" x1="39.94" y1="58.05" x2="39.94" y2="59.78"/><path class="cls-2" d="M52.65,42.6A9.86,9.86,0,0,0,42.52,33,9.86,9.86,0,0,0,32.39,42.6c0,4.36,3.32,8,7.54,9.18v2h5.18v-2C49.33,50.63,52.65,47,52.65,42.6Z" transform="translate(-2.58 -2.58)"/></svg>