<svg xmlns="http://www.w3.org/2000/svg" width="31" height="36" viewBox="0 0 31 36">
  <metadata><?xpacket begin="﻿" id="W5M0MpCehiHzreSzNTczkc9d"?>
<x:xmpmeta xmlns:x="adobe:ns:meta/" x:xmptk="Adobe XMP Core 5.6-c138 79.159824, 2016/09/14-01:09:01        ">
   <rdf:RDF xmlns:rdf="http://www.w3.org/1999/02/22-rdf-syntax-ns#">
      <rdf:Description rdf:about=""/>
   </rdf:RDF>
</x:xmpmeta>
                                                                                                    
                                                                                                    
                                                                                                    
                                                                                                    
                                                                                                    
                                                                                                    
                                                                                                    
                                                                                                    
                                                                                                    
                                                                                                    
                                                                                                    
                                                                                                    
                                                                                                    
                                                                                                    
                                                                                                    
                                                                                                    
                                                                                                    
                                                                                                    
                                                                                                    
                                                                                                    
                           
<?xpacket end="w"?></metadata>
<defs>
    <style>
      .cls-1 {
        fill: #fff;
        fill-rule: evenodd;
      }
    </style>
  </defs>
  <path id="user" class="cls-1" d="M691.964,94.759a3.966,3.966,0,0,0,3.92,4,1.459,1.459,0,0,0,.179-0.015l2.281-.345v2.343A1.243,1.243,0,0,0,699.581,102h15.126a1.25,1.25,0,0,0,1.237-1.263V90.492a14.5,14.5,0,0,0,4.15-10.164A14.2,14.2,0,0,0,706.068,66a13.674,13.674,0,0,0-5.984,1.366,14.376,14.376,0,0,0-8.12,12.977V82.2l-2.467,4.81a2.949,2.949,0,0,0-.051,2.886,2.817,2.817,0,0,0,2.518,1.293v3.569Zm-0.4-6.154h0a0.786,0.786,0,0,1,.122-0.426l2.611-5.082a1.282,1.282,0,0,0,.144-0.587V80.343a11.85,11.85,0,0,1,6.7-10.693,11.289,11.289,0,0,1,4.942-1.131,11.7,11.7,0,0,1,11.558,11.809,11.967,11.967,0,0,1-3.747,8.7,1.274,1.274,0,0,0-.4.925v9.532H700.825V96.947a1.272,1.272,0,0,0-.432-0.955,1.242,1.242,0,0,0-.985-0.294l-3.589.543a1.476,1.476,0,0,1-1.381-1.483V89.927a1.244,1.244,0,0,0-1.237-1.256h-1.223A1.421,1.421,0,0,1,691.561,88.6Z" transform="translate(-689.094 -66)"/>
</svg>
