<svg 
 xmlns="http://www.w3.org/2000/svg"
 xmlns:xlink="http://www.w3.org/1999/xlink"
 width="220px" height="31px">
<defs>
<filter id="Filter_0">
    <feFlood flood-color="rgb(73, 172, 255)" flood-opacity="1" result="floodOut" />
    <feComposite operator="atop" in="floodOut" in2="SourceGraphic" result="compOut" />
    <feBlend mode="normal" in="compOut" in2="SourceGraphic" />
</filter>

</defs>
<g filter="url(#Filter_0)">
<path fill-rule="evenodd"  fill="rgb(204, 204, 204)"
 d="M219.886,16.153 L219.886,17.809 L206.143,12.012 C203.976,13.025 201.665,14.013 199.209,14.979 C196.751,15.946 194.440,16.935 192.275,17.947 L192.275,16.429 L204.644,11.184 C203.476,10.724 202.186,10.196 200.770,9.596 C199.353,8.999 198.063,8.471 196.897,8.009 L196.897,6.629 L206.143,10.356 C207.808,9.620 209.536,8.930 211.328,8.285 C213.118,7.642 214.846,6.952 216.513,6.215 L216.388,6.215 L216.388,4.006 L197.397,4.006 C196.979,5.020 196.542,6.124 196.085,7.319 C195.626,8.516 195.189,9.620 194.773,10.632 L193.149,10.632 L197.022,0.832 L198.646,0.832 L197.897,2.764 L218.137,2.764 L218.137,7.043 L207.642,11.184 C209.641,12.012 211.681,12.840 213.764,13.668 C215.845,14.496 217.887,15.324 219.886,16.153 ZM178.219,26.988 C177.177,28.044 176.158,29.080 175.158,30.093 L175.158,28.161 L180.156,22.778 C179.406,22.042 178.656,21.307 177.907,20.569 C177.157,19.834 176.407,19.099 175.658,18.361 L175.658,16.429 L181.280,21.674 L185.778,16.705 L185.778,13.806 L174.034,13.806 L174.034,20.984 L173.284,29.955 L171.785,29.955 L172.534,20.845 L172.534,2.764 L187.277,2.764 L187.277,8.975 L180.530,8.975 L179.406,7.733 L185.778,7.733 L185.778,3.868 L174.034,3.868 L174.034,12.564 L187.402,12.564 L187.402,17.257 L182.280,22.640 C183.111,23.468 183.986,24.365 184.903,25.331 C185.819,26.298 186.693,27.195 187.527,28.023 L187.527,30.093 L181.280,23.882 C180.280,24.896 179.260,25.931 178.219,26.988 ZM164.913,28.575 L167.912,28.575 L167.912,20.155 L162.789,20.155 L162.789,22.226 L162.039,29.817 L160.540,29.817 L161.290,22.088 L161.290,2.764 L169.536,2.764 L169.536,29.817 L165.538,29.817 L164.913,28.575 ZM167.912,3.868 L162.789,3.868 L162.789,10.356 L167.912,10.356 L167.912,3.868 ZM167.912,11.598 L162.789,11.598 L162.789,18.913 L167.912,18.913 L167.912,11.598 ZM152.294,6.629 L153.793,6.629 L156.542,24.434 L155.043,24.434 L152.294,6.629 ZM133.803,6.905 L135.302,6.905 L135.302,27.885 L150.170,27.885 L150.170,14.496 L151.669,16.153 L151.669,29.265 L133.803,29.265 L133.803,6.905 ZM140.425,1.522 L142.174,1.522 L146.672,11.598 L144.923,11.598 L140.425,1.522 ZM128.181,24.434 L130.555,7.457 L132.054,7.457 L129.680,24.434 L128.181,24.434 ZM114.875,26.850 C114.250,27.906 113.604,28.942 112.938,29.955 L111.314,29.955 L121.309,14.220 L122.934,14.220 L117.686,22.640 L123.433,28.299 L123.433,30.231 L116.812,23.744 C116.144,24.758 115.500,25.793 114.875,26.850 ZM110.377,10.079 C109.503,11.645 108.690,13.071 107.941,14.358 L114.063,14.358 C114.563,13.623 115.062,12.818 115.562,11.943 C116.062,11.069 116.562,10.265 117.061,9.527 L118.811,9.527 L106.442,29.403 L104.817,29.403 L113.313,15.601 L105.567,15.601 L111.189,5.801 L104.817,5.801 L104.817,4.558 L123.433,4.558 L123.433,5.801 L112.813,5.801 C112.064,7.090 111.252,8.516 110.377,10.079 ZM113.438,1.108 L115.062,1.108 L116.312,3.730 L114.688,3.730 L113.438,1.108 ZM105.692,9.251 L101.819,9.251 L101.819,11.874 L101.819,29.817 L100.320,29.817 L100.320,12.012 C99.902,13.854 99.402,15.739 98.820,17.671 C98.237,19.603 97.737,21.490 97.321,23.330 L95.822,23.330 L99.445,9.251 L95.697,9.251 L95.697,7.871 L100.320,7.871 L100.320,1.246 L101.819,1.246 L101.819,7.871 L105.692,7.871 L105.692,9.251 ZM105.442,17.671 L103.818,17.671 L101.819,11.874 L103.443,11.874 L105.442,17.671 ZM71.709,10.494 L81.704,10.494 L81.704,4.834 L74.082,4.834 C73.915,5.572 73.727,6.284 73.520,6.974 C73.311,7.664 73.124,8.378 72.958,9.113 L71.584,9.113 L73.583,0.970 L75.082,0.970 L74.457,3.592 L81.704,3.592 L81.704,0.970 L83.203,0.970 L83.203,3.592 L91.699,3.592 L91.699,4.834 L83.203,4.834 L83.203,10.494 L92.698,10.494 L92.698,11.736 L71.709,11.736 L71.709,10.494 ZM64.712,1.384 L66.336,1.384 L70.834,8.561 L69.085,8.561 L64.712,1.384 ZM91.199,15.601 L91.199,24.158 L73.083,24.158 L73.083,15.601 L91.199,15.601 ZM74.582,22.916 L89.700,22.916 L89.700,16.981 L74.582,16.981 L74.582,22.916 ZM68.960,24.020 L72.833,28.299 L92.324,28.299 L91.699,29.541 L71.958,29.541 L68.210,25.400 C67.793,26.138 67.336,26.850 66.836,27.540 C66.336,28.230 65.877,28.942 65.462,29.679 L63.837,29.679 L67.461,24.020 L67.461,12.702 L63.837,12.702 L63.837,11.460 L68.960,11.460 L68.960,24.020 ZM47.970,2.350 L59.340,2.350 L59.340,14.220 L47.970,14.220 L47.970,2.350 ZM49.469,12.978 L57.840,12.978 L57.840,3.592 L49.469,3.592 L49.469,12.978 ZM40.849,11.598 L32.728,18.223 L32.728,16.567 L39.349,11.184 L39.349,10.494 L32.728,10.494 L32.728,9.251 L39.349,9.251 L39.349,3.730 L35.226,3.730 C35.059,4.468 34.871,5.180 34.664,5.870 C34.455,6.560 34.268,7.274 34.102,8.009 L32.603,8.009 L34.477,0.970 L35.976,0.970 L35.601,2.488 L46.471,2.488 L46.471,3.730 L40.849,3.730 L40.849,9.251 L46.971,9.251 L46.971,10.494 L40.849,10.494 L40.849,11.598 ZM28.105,29.679 L26.356,29.679 L14.112,13.254 L15.986,13.254 L28.105,29.679 ZM0.119,29.679 L13.362,11.874 L13.362,9.803 L0.244,9.803 L0.244,8.561 L13.362,8.561 L13.362,0.970 L14.861,0.970 L14.861,8.561 L28.105,8.561 L28.105,9.803 L14.861,9.803 L14.861,12.288 L14.112,13.254 L1.868,29.679 L0.119,29.679 ZM46.846,14.634 L46.846,16.291 L41.099,12.702 L41.099,11.184 L46.846,14.634 ZM57.715,29.817 L34.852,29.817 L34.852,17.119 L57.715,17.119 L57.715,29.817 ZM56.216,18.361 L36.351,18.361 L36.351,23.054 L56.216,23.054 L56.216,18.361 ZM56.216,24.296 L36.351,24.296 L36.351,28.575 L56.216,28.575 L56.216,24.296 ZM194.524,20.431 L194.524,19.189 L201.020,19.189 C201.352,18.637 201.602,18.040 201.770,17.395 C201.936,16.752 202.186,16.200 202.520,15.739 L204.144,15.739 L202.645,19.189 L217.512,19.189 L217.137,29.817 L207.142,29.817 L206.393,28.575 L215.638,28.575 C215.638,27.380 215.679,26.000 215.763,24.434 C215.845,22.871 215.888,21.536 215.888,20.431 L201.895,20.431 C200.977,21.997 199.999,23.606 198.959,25.262 C197.916,26.919 196.938,28.527 196.023,30.093 L194.399,30.093 L200.271,20.431 L194.524,20.431 Z"/>
</g>
</svg>